<?xml version="1.0" encoding="UTF-8"?>
<svg id="Layer_2" data-name="Layer 2" xmlns="http://www.w3.org/2000/svg" viewBox="0 0 456.01 174.81">
  <defs>
    <style>
      .cls-1 {
        fill: #0a2472;
      }
    </style>
  </defs>
  <g id="Layer_1-2" data-name="Layer 1">
    <g>
      <path class="cls-1" d="m93.11,129.92v13.33c0,1.58-11.99,3.93-13.1,4.13-17.54,3.14-36.66-4.45-45.84-20.07-10.51-17.9-7.38-41.05-7.49-60.85,0-.18-.15-1.3,0-1.43,0,0-11.97,10.44-13.32,29.75-.39,5.57-.34,11.07.5,16.6,2.26,14.88,9.73,29.55,23.1,38.47,18.18,12.14,41.3,14.69,60.73,6.04,3.01-1.34,5.92-2.86,8.75-4.54V34.32h0c1.92,0,3.77.69,5.22,1.95,6.03,5.22,22.23,20.38,29.54,38.42,0,0,11.01,28,0,53.5,0,0-2.35,6.64-4.36,10.56-.57,1.11-1.72,1.8-2.98,1.8h0c-.1-22.92,3.29-48.59-8.42-69.55-1.3-2.33-2.92-4.79-5.29-6.15v93.28c0,.66-3.2,2.57-3.67,2.91-3.31,2.43-6.82,4.59-10.48,6.46-19.68,10.07-47.16,9.59-66.85-.42-3.98-2.02-7.74-4.5-11.13-7.41C9.79,144-1.08,122.1.09,97.79c.29-6.04,1.39-12.06,3.61-17.69,0,0,5.11-18.37,21.24-33.99,2.45-2.37,4.75-4.88,7.23-7.21,2.3-2.17,4.65-4.57,8.02-4.57,0,15.52-.03,31.04-.18,46.56-.13,12.96-1.4,26.83,5.81,38.33,3.9,6.22,9.67,11.25,16.6,13.79,10.12,3.71,21.17,1.23,30.68-3.08Z"/>
      <path class="cls-1" d="m79.51,46.03v-21.08c0-.3-.12-.6-.34-.81l-4.57-4.57c-.91-.91-2.39-.91-3.3,0l-4.57,4.57c-.22.22-.34.51-.34.81v76.71c0,7.96,13.11,8.29,13.11.06v-28.59h-7.13v-13.4h20.68v39.55c0,4.96-1.32,9.88-4.06,14.01-2.04,3.08-5.01,6.01-9.27,7.33-5.3,1.64-10.28,1.27-15.45-.61-6.83-2.49-11.28-9.1-11.28-16.38V18.89c0-.62.25-1.21.68-1.65l15.87-15.87c1.82-1.82,4.77-1.82,6.59,0l16.27,16.27c.44.44.68,1.03.68,1.65v26.9l-13.59-.15Z"/>
    </g>
    <g>
      <g>
        <path class="cls-1" d="m158.3,62.06c0-15.27,11.16-25.71,27.43-25.71,6.05,0,13.03,1.51,17.64,3.89l.58,13.68h-2.66l-3.02-4.1c-4.54-6.12-7.56-8.21-12.02-8.21-9.07,0-15.05,8.14-15.05,20.45,0,11.66,6.41,19.44,16.13,19.44,2.23,0,4.46-.58,5.62-1.58v-7.56c0-2.45-.79-3.46-3.53-4.82l-2.3-1.22v-2.59h21.67v2.59l-1.44.79c-1.66.79-2.23,1.94-2.23,4.1v10.66c-4.9,3.46-11.81,5.26-19.87,5.26-17.14,0-26.93-9.07-26.93-25.06Z"/>
        <path class="cls-1" d="m212.95,68.54c0-11.16,7.92-19.15,18.51-19.15s16.63,6.26,16.63,16.56v1.73h-22.68v.36c0,7.99,4.18,12.24,11.45,12.24,2.74,0,5.04-.79,8.14-2.66l2.52,3.1c-4.39,4.39-9.58,6.41-16.2,6.41-11.45,0-18.36-6.84-18.36-18.58Zm23.69-5.62c0-5.76-1.87-9-5.04-9-3.6,0-5.47,2.66-6.05,9.29l11.09-.29Zm-10.22-18.22l5.9-12.75h12.24v2.45l-14.26,10.3h-3.89Z"/>
        <path class="cls-1" d="m251.97,86.39v-2.45l2.52-1.37c2.16-1.22,2.67-2.16,2.67-4.82v-13.83c0-3.6-.5-4.61-2.59-5.47l-2.3-.94v-2.45l13.18-5.69,2.23,1.37v6.55c3.89-4.9,8.64-7.92,12.96-7.92,7.49,0,11.95,5.54,11.95,14.91v13.47c0,2.66.5,3.6,2.66,4.82l2.52,1.37v2.45h-21.39v-2.45l2.52-1.37c1.87-1.08,2.23-1.87,2.23-4.82v-11.23c0-5.33-2.23-8.14-6.41-8.14-2.16,0-4.46,1.3-6.12,3.02v16.35c0,2.95.36,3.74,2.23,4.82l2.52,1.37v2.45h-21.39Z"/>
        <path class="cls-1" d="m301.22,68.54c0-11.16,7.92-19.15,18.51-19.15s16.63,6.26,16.63,16.56v1.73h-22.68v.36c0,7.99,4.18,12.24,11.45,12.24,2.74,0,5.04-.79,8.14-2.66l2.52,3.1c-4.39,4.39-9.58,6.41-16.2,6.41-11.45,0-18.36-6.84-18.36-18.58Zm23.69-5.62c0-5.76-1.87-9-5.04-9-3.6,0-5.47,2.66-6.05,9.29l11.09-.29Z"/>
        <path class="cls-1" d="m341.11,83.44l1.15-9.94h2.59l2.16,3.24c2.74,4.1,4.9,5.83,8.5,5.83,2.81,0,4.75-1.3,4.75-3.96,0-1.87-1.37-3.53-8.86-6.7-6.55-2.81-9.65-6.34-9.65-11.38,0-6.84,5.62-11.16,14.04-11.16,4.75,0,9.87,1.01,13.11,2.52l-1.01,9.22h-2.74c-.94-1.51-2.16-3.02-3.46-4.54-1.51-1.73-3.53-2.66-5.62-2.66-2.95,0-4.54,1.22-4.54,3.02,0,2.45,1.58,3.67,9.29,7.13,7.27,3.24,9.65,6.41,9.65,11.02,0,7.13-6.55,12.03-15.62,12.03-4.68,0-10.01-1.22-13.75-3.67Z"/>
        <path class="cls-1" d="m374.22,86.39v-2.45l2.52-1.37c2.09-1.22,2.67-2.09,2.67-4.82v-13.83c0-3.67-.58-4.68-2.59-5.47l-2.3-.94v-2.45l14.11-5.69,2.23,1.37v27c0,2.74.58,3.6,2.66,4.82l2.52,1.37v2.45h-21.82Zm3.24-48.1c0-4.1,2.95-6.77,6.7-6.77s6.7,2.59,6.7,6.77-2.66,6.77-6.7,6.77-6.7-3.1-6.7-6.77Z"/>
        <path class="cls-1" d="m399.78,83.44l1.15-9.94h2.59l2.16,3.24c2.74,4.1,4.9,5.83,8.5,5.83,2.81,0,4.75-1.3,4.75-3.96,0-1.87-1.37-3.53-8.86-6.7-6.55-2.81-9.65-6.34-9.65-11.38,0-6.84,5.62-11.16,14.04-11.16,4.75,0,9.87,1.01,13.11,2.52l-1.01,9.22h-2.74c-.94-1.51-2.16-3.02-3.46-4.54-1.51-1.73-3.53-2.66-5.62-2.66-2.95,0-4.54,1.22-4.54,3.02,0,2.45,1.58,3.67,9.29,7.13,7.27,3.24,9.65,6.41,9.65,11.02,0,7.13-6.55,12.03-15.62,12.03-4.68,0-10.01-1.22-13.75-3.67Z"/>
      </g>
      <g>
        <path class="cls-1" d="m197.17,104.16v4.27h-18.58v12.85h15.04v4.1h-15.04v13.2h18.58v4.27h-23.84v-38.69h23.84Z"/>
        <path class="cls-1" d="m209.94,138.45h16.74v4.4h-21.98v-38.69h5.24v34.29Z"/>
        <path class="cls-1" d="m256.3,104.16v4.27h-18.58v12.85h15.04v4.1h-15.04v13.2h18.58v4.27h-23.84v-38.69h23.84Z"/>
        <path class="cls-1" d="m291.1,134.86c.29,0,.55.12.78.35l2.05,2.24c-1.58,1.84-3.51,3.27-5.76,4.29s-4.98,1.54-8.17,1.54c-2.79,0-5.32-.48-7.59-1.44-2.27-.96-4.2-2.31-5.81-4.05-1.6-1.74-2.84-3.82-3.73-6.25-.88-2.43-1.32-5.1-1.32-8.02s.47-5.59,1.42-8.02c.94-2.43,2.27-4.52,3.98-6.26,1.71-1.75,3.76-3.1,6.14-4.06,2.38-.96,5.02-1.44,7.9-1.44s5.3.44,7.36,1.32c2.06.88,3.89,2.08,5.49,3.59l-1.7,2.4c-.13.18-.27.33-.43.45-.16.12-.4.18-.7.18-.23,0-.48-.09-.74-.26-.26-.17-.57-.38-.93-.63-.36-.25-.78-.52-1.27-.81-.49-.29-1.06-.56-1.73-.81-.67-.25-1.44-.46-2.32-.63-.88-.17-1.9-.26-3.05-.26-2.07,0-3.96.36-5.68,1.07-1.72.71-3.2,1.72-4.44,3.04-1.24,1.31-2.21,2.92-2.9,4.81-.69,1.89-1.04,4.01-1.04,6.34s.35,4.56,1.04,6.45c.69,1.89,1.64,3.49,2.84,4.79,1.2,1.31,2.61,2.3,4.25,2.98,1.64.68,3.4,1.03,5.29,1.03,1.15,0,2.19-.07,3.11-.2s1.77-.35,2.55-.63c.78-.29,1.51-.65,2.19-1.09s1.35-.97,2.04-1.58c.31-.27.6-.4.89-.4Z"/>
        <path class="cls-1" d="m327.17,104.16v4.4h-12.5v34.29h-5.24v-34.29h-12.56v-4.4h30.29Z"/>
        <path class="cls-1" d="m338.43,126.71v16.15h-5.21v-38.69h10.93c2.45,0,4.56.25,6.34.74,1.78.5,3.25,1.21,4.41,2.15s2.02,2.07,2.58,3.39c.56,1.32.84,2.8.84,4.44,0,1.37-.22,2.65-.65,3.83-.43,1.19-1.06,2.25-1.88,3.2-.82.95-1.82,1.75-3,2.42-1.18.67-2.52,1.17-4.01,1.51.65.38,1.22.93,1.73,1.65l11.29,15.36h-4.64c-.95,0-1.66-.37-2.11-1.11l-10.04-13.82c-.31-.43-.64-.74-1-.93-.36-.19-.9-.28-1.62-.28h-3.97Zm0-3.81h5.48c1.53,0,2.87-.18,4.04-.55,1.16-.37,2.13-.89,2.92-1.57s1.37-1.48,1.77-2.42c.4-.94.59-1.97.59-3.11,0-2.3-.76-4.04-2.28-5.21-1.52-1.17-3.78-1.75-6.79-1.75h-5.72v14.61Z"/>
        <path class="cls-1" d="m373.66,142.86h-5.24v-38.69h5.24v38.69Z"/>
        <path class="cls-1" d="m411.3,134.86c.29,0,.55.12.78.35l2.05,2.24c-1.58,1.84-3.51,3.27-5.76,4.29s-4.98,1.54-8.17,1.54c-2.79,0-5.32-.48-7.59-1.44-2.27-.96-4.2-2.31-5.81-4.05-1.6-1.74-2.84-3.82-3.73-6.25-.88-2.43-1.32-5.1-1.32-8.02s.47-5.59,1.42-8.02c.94-2.43,2.27-4.52,3.98-6.26,1.71-1.75,3.76-3.1,6.14-4.06,2.38-.96,5.02-1.44,7.9-1.44s5.3.44,7.36,1.32c2.06.88,3.89,2.08,5.49,3.59l-1.7,2.4c-.13.18-.27.33-.43.45-.16.12-.4.18-.7.18-.23,0-.48-.09-.74-.26-.26-.17-.57-.38-.93-.63-.36-.25-.78-.52-1.27-.81-.49-.29-1.06-.56-1.73-.81-.67-.25-1.44-.46-2.32-.63-.88-.17-1.9-.26-3.05-.26-2.07,0-3.96.36-5.68,1.07-1.72.71-3.2,1.72-4.44,3.04-1.24,1.31-2.21,2.92-2.9,4.81-.69,1.89-1.04,4.01-1.04,6.34s.35,4.56,1.04,6.45c.69,1.89,1.64,3.49,2.84,4.79,1.2,1.31,2.61,2.3,4.25,2.98,1.64.68,3.4,1.03,5.29,1.03,1.15,0,2.19-.07,3.11-.2s1.77-.35,2.55-.63c.78-.29,1.51-.65,2.19-1.09s1.35-.97,2.04-1.58c.31-.27.6-.4.89-.4Z"/>
      </g>
      <path class="cls-1" d="m436.61,49.4c0-5.5,3.32-9.74,9.7-9.74,5.63,0,9.7,4.12,9.7,9.74s-3.4,9.7-9.7,9.7c-5.67,0-9.7-4.12-9.7-9.7Zm17.47,0c0-4.7-3.28-8.23-7.77-8.23-5.08,0-7.81,3.57-7.81,8.23s3.28,8.23,7.81,8.23c5.04,0,7.77-3.57,7.77-8.23Zm-12.47,5.08v-.59l.46-.29c.46-.34.55-.5.55-1.09v-6.13c0-.38-.08-.55-.55-.97l-.46-.38v-.55h4.87c2.39,0,3.99,1.09,3.99,2.77,0,1.22-.88,2.31-2.35,2.86.46.13.88.76,1.47,1.72.71,1.13.97,1.6,1.47,1.81l.55.25v.59h-3.11l-2.1-3.49c-.34-.55-.42-.63-.71-.63h-.59v2.14c0,.59.13.8.59,1.09l.46.29v.59h-4.54Zm3.49-5.17h.92c1.18,0,1.81-.88,1.81-2.06,0-1.01-.71-1.64-1.81-1.64h-.92v3.7Z"/>
    </g>
  </g>
</svg>