<svg version="1.2" xmlns="http://www.w3.org/2000/svg" viewBox="97.43934911242604 130.00518518518518 843.560650887574 614.6362713464489" width="844" height="615"><style>.a{fill:#0a2472}</style><path class="a" d="m743.5 742.9c-9 1.2-55 2.2-65.5 1.5-3-0.2-18.5-0.8-34.5-1.4-16-0.6-46.1-1.7-67-2.5-97.3-3.7-203-7.5-268-9.5-34.1-1.1-64.3-2.5-67-3.1-7.3-1.6-20.1-8.1-27-13.6-11.8-9.6-20.9-23.8-26.1-40.8-2.7-8.9-2.8-9.4-3.2-43-0.5-39.9 1.2-123.5 5.3-269.5 1.6-55.2 2.3-64.9 5.6-75.8 5.3-17.1 17.5-32.1 35.2-43.2 4.8-3 19-12.1 31.5-20.2 41.4-26.9 49.7-31.2 67.6-34.9 10.8-2.2 31.8-2.5 80.1-0.9 17.1 0.6 76.5 2.2 132 3.5 55.5 1.4 111.6 2.8 124.5 3.1 13.6 0.4 24.5 0.2 25.9-0.3 2.1-0.8 1.5-1.2-5.5-3.8-9.3-3.3-11.4-4.9-11.4-8.5 0-3.9 2.7-5.7 10.8-7.5 9.2-1.9 15.9-5.3 20.5-10.4 5.8-6.4 7.8-11.1 11.1-26.3 1.2-5.5 6.6-7.7 10-3.9 0.9 1 2.1 4.6 2.7 8 3 18.8 13.3 29.9 32 34.7 8 2 9.6 2.9 10.4 5.5 1.1 3.5-2 6.7-8.3 8.5-10.8 3-14.5 4.6-12.7 5.6 0.9 0.5 12.3 1.6 25.3 2.4 27.6 1.6 30.2 1.9 40.2 4.5 16.8 4.5 32.4 16.5 38.8 30 5.6 11.8 6.6 17.9 6.6 42.9 0.2 47.3-2.5 290.8-3.5 318-1.8 51.9-5.5 76.5-13.6 92.2-13.9 26.7-60.7 53.4-102.8 58.7zm-63.7-13.1c0.3 2 0.9 2.2 6.3 2.2 5.2 0 5.9-0.2 5.9-1.9 0-1.1 0.4-2.2 0.9-2.5 1.6-1 4.1 0.5 4.1 2.5 0 1.7 0.8 1.9 6 1.9 4.5 0 5.8-0.3 5.4-1.3-0.6-1.7 2.1-4.1 3.6-3.2 0.5 0.3 1 1.3 1 2.1 0 0.8 0.3 1.4 0.8 1.4 2-0.1 10.3-2.3 15.4-4.2 5.1-1.8 5.7-2.3 5.2-4.3-0.7-2.9 1.5-4.4 3.1-2.2 1.1 1.5 1.4 1.5 3.6 0 7.3-4.9 15.6-15.2 19.8-24.7 5-11.5 5.2-13.6 6.1-60.1 0.5-24.2 1.4-67.2 2-95.5 4.4-208.4 4.7-238.6 2.5-249.2-3.1-14.6-8.7-22.8-18.8-27.8-7.9-3.8-16.1-4.7-49.2-5.5-13.7-0.3-39-1-56-1.5-17-0.6-64.5-1.9-105.5-3-41-1.1-90.2-2.4-109.5-3-92.3-2.6-124.2-3.3-151.1-3.4l-29.1-0.1-9.9 4.9c-8.1 4.1-11.2 6.3-17.9 13-12 12.1-17.5 23.7-19.4 40.8-0.5 5.1-1.2 19-1.6 30.8-0.3 11.8-1 37-1.5 56-2.3 79.9-4.1 158-4.6 209l-0.6 54.5 2.6 10c6.3 24.1 20.3 41.4 39.3 48.5 6.4 2.4 22.8 3.5 69.3 4.6 15.1 0.4 30.3 0.9 33.8 1.2 4.1 0.2 6.8 0 7.7-0.8 1.1-0.9 1.9-0.9 2.8-0.2 2.1 1.8 13 2 14.5 0.2 1.1-1.3 1.3-1.3 2.6 0.3 1 1.3 2.8 1.7 7.1 1.7 4.3 0 6.1-0.4 7.1-1.7 1.3-1.7 1.5-1.7 2.8 0 0.9 1.1 3.4 1.9 7.3 2.3 5.5 0.6 6 0.5 6.6-1.5 0.7-2.7 2.7-2.7 3.4-0.1 0.5 1.7 1.4 2 6.9 2 4.6 0 6.3-0.4 6.2-1.2-0.2-0.7 0.6-1.3 1.7-1.3 1.4 0 1.9 0.6 1.7 1.8-0.2 1.5 0.6 1.7 6.7 1.7 5.9 0 6.9-0.2 6.7-1.7 0-1.2 0.6-1.8 1.9-1.8 1.4 0 1.9 0.6 1.7 1.8-0.2 1.5 0.6 1.7 6.7 1.7 6.4 0 6.9-0.1 6.4-2-0.4-1.6 0-2 1.7-2 1.7 0 2.1 0.4 1.7 2-0.4 1.5 0.1 2.1 1.6 2.4 1.2 0.3 18.4 1 38.2 1.6 19.8 0.6 40.3 1.3 45.5 1.6 5.2 0.2 20.2 0.6 33.3 0.8 13.1 0.2 24.1 0.7 24.5 1 1 1.1 11.8 0.6 13-0.6 0.9-0.9 1.5-0.9 2.4 0 1.6 1.6 11.3 1.5 13.9 0 1.7-1.1 2.2-1 3.3 0.5 1.7 2.2 10.8 2.4 12.6 0.2 1.6-1.9 3.7-1.9 4.8 0 0.5 0.9 2.9 1.8 5.8 2.1 4.6 0.6 5.2 0.4 5.7-1.5 0.7-2.8 4.7-2.9 5.4-0.1 0.4 1.7 1.4 2 5.8 2 4.5 0 5.4-0.3 5.8-2.1 0.7-2.8 4.1-2.1 4.5 0.9zm29.5-213.3c-7.4 1.9-26.4 1.8-83.3-0.6-23.9-1.1-98.4-4.1-165.5-6.9-67.1-2.7-132.1-5.4-144.5-6-12.4-0.5-29.9-1.2-39-1.5-27-1.1-36.7-4.1-45.9-14-2.8-3.1-6-8-7.3-11.2-2.1-5.4-2.3-7.1-2.1-24.3 0.2-20.1 2.8-98.9 4.3-129.7 1-20.3 2.4-27 7.5-35.8 5.2-8.7 15.4-16.1 25.5-18.4 4.1-0.9 100.8 1.2 310.5 6.9 21.5 0.6 63.3 1.7 93 2.5 56.7 1.5 60.5 1.9 69.7 6.6 6.4 3.3 13.2 10.7 15.9 17.5 2.3 5.6 2.4 6.9 2.4 29.4-0.1 39.2-3.5 137.6-5.1 145.5-0.7 3.9-3.2 10.7-5.4 15.1-6.3 12.8-16.7 21.3-30.7 24.9zm-61.8-12.1c41.6 1.8 48.9 1.8 56.6 0.2 14.4-3.1 23.9-11.5 28.1-24.8 2.1-6.9 2.2-9.2 5.3-109.3 1.6-52.2 1.5-58.1-1.1-64.5-3.2-7.6-11.8-13.3-21.4-14.4-5.3-0.6-65-2.4-154-4.6-43.6-1.1-151.2-4-242.9-6.5q-2-0.1-3.8-0.1c-46.2-1.3-54.5-1.6-60.3 2.2-1.4 0.9-2.7 2-4.4 3.5-5.6 5-9.3 12.6-10.6 22.1-1.1 7.9-5.1 114.2-5.3 142.8-0.2 14.7 0.1 18.1 1.5 21.1 4 8.5 11.7 14 22.1 15.9 2.9 0.5 45.5 2.6 94.7 4.5 49.2 1.9 100.3 3.9 113.5 4.5 13.2 0.5 52.6 2.1 87.5 3.5 34.9 1.4 77.5 3.2 94.5 3.9zm50.2 157.1c-4.8 2.3-6 2.5-19.2 2.4-7.7-0.1-27.7-0.8-44.5-1.5-46.9-1.9-101.4-4.2-182.5-7.4-198.3-7.9-203.2-8.1-206.9-10.2q-0.3-0.2-0.6-0.4c-1.8-1-4.2-3.2-5.4-4.7-2-2.8-2.1-3.9-2.4-45.5-0.2-27.9 0.1-44.4 0.8-47.8 1.5-7 5.5-12.2 12.1-15.9 5.4-3 5.5-3 20.4-2.9 8.3 0.1 33.2 0.9 55.5 1.8 76.1 3.1 189.5 7.6 279.5 11.1 69.9 2.7 91.1 3.8 95.1 5 6.2 1.8 11.7 7.3 13.5 13.4 1.7 5.8-1.3 82.6-3.5 88.9-2.3 6.3-6.1 10.8-11.9 13.7zm59.8 63.1c-3.7 3.3-3.9 4.8-0.1 1.9q1.9-1.4 3.6-0.5c3.3 1.8 16-2.8 18.5-6.6 1-1.6 2.5-2.5 3.8-2.4 3.8 0.4 4.7 0 4.1-1.5-0.4-0.8-0.3-2.6 0-4 0.8-3.1 5-3.5 6.7-0.6 1.2 1.8 1.3 1.8 4.8-0.2 9.5-5.5 29-23.7 32.4-30.3 1.6-3.1 1.6-3.2-0.8-3.8-2.8-0.7-4.2-4.1-2.5-6.1 1.9-2.3 5.9-1.9 6.9 0.7 0.8 2.2 1 2.2 1.7 0.4 0.4-1 0.2-2.7-0.4-3.7-1.8-2.9-1.4-4.3 1.8-7.2 1.6-1.5 3-3.3 3-4.1 0-0.8 0.3-2.1 0.6-3 0.4-1.1 0.2-1.5-0.8-1.1-0.8 0.3-2.5-0.3-3.8-1.3-2-1.6-2.1-2.1-1-4.1 1-1.9 1.8-2.2 4.5-1.8 3.2 0.5 3.3 0.5 2.2-2.3-0.8-2.2-0.7-3.3 0.6-5.4 1.9-2.8 2.3-9.1 0.7-10.1-1.5-0.9-1.2-5.1 0.5-6.5 1.6-1.4 2.1-9 0.6-9-0.6 0-1.3-1-1.7-2.2-0.5-1.6-0.1-2.7 1.5-3.9 2.6-2.1 3-9.3 0.6-10.3-2.2-0.8-1.9-5.3 0.5-6.6 1.5-0.8 2-2.1 2-4.9 0-3-0.4-4-2-4.4-1.2-0.3-2-1.3-2-2.7 0-1.4 0.8-2.4 2-2.7 1.6-0.4 2-1.4 2-5.3 0-3.9-0.4-4.9-2-5.3-1.2-0.3-2-1.3-2-2.6 0-1.1 0.9-2.6 2-3.3 1.5-0.9 2-2.4 2-5.4 0-3.3-0.4-4.3-2-4.7-2.7-0.7-2.6-4.5 0.1-5.6 1.8-0.6 2.2-1.6 2.3-5.4 0.1-4-0.2-4.7-2.1-5.2-3.2-0.8-3-4.3 0.2-5.5 2.1-0.8 2.5-1.6 2.5-5.4 0-3.9-0.3-4.5-2.2-4.8-1.7-0.2-2.3-1-2.3-2.8 0-1.8 0.6-2.6 2.3-2.8 1.9-0.3 2.2-0.9 2.2-5.2 0-4.3-0.3-4.9-2.2-5.2-1.7-0.2-2.3-1-2.3-2.8 0-1.8 0.6-2.6 2.3-2.8 1.9-0.3 2.2-0.9 2.2-5 0-3.9-0.4-4.9-2.2-5.7-1.3-0.6-2.3-1.7-2.3-2.5 0-0.8 1-1.9 2.3-2.5 1.8-0.8 2.2-1.8 2.2-5.7 0-4.2-0.3-4.8-2-4.8-1.1 0-2.3-0.7-2.6-1.5-0.8-1.9 1.5-4.8 3.3-4.1 1 0.4 1.3-0.8 1.3-4.9 0-4.8-0.2-5.4-2.2-5.7-1.5-0.2-2.4-1.1-2.6-2.6-0.3-1.8 0.3-2.3 2.6-2.8 2.6-0.5 2.9-1 3.1-5.4 0.2-4.6 0.1-4.9-2.6-5.2-3.9-0.4-4-4.2 0-4.6 2.6-0.3 2.7-0.6 2.7-6.1 0-5.5-0.1-5.7-2.7-5.6-2.2 0-2.8-0.5-2.8-2 0-1.5 0.6-2 2.8-2l2.8 0.1-0.3-82.1-0.3-82-2.3-6.5c-7.9-22-24.2-32-56.9-35-6.5-0.5-20.8-1.4-31.8-2-17.7-0.8-20.1-0.7-21.2 0.6-1 1.4-2.2 4.5-7.4 19.2-1.2 3.1-5.2 4.8-8.3 3.4-1.9-0.8-3.1-3.3-6-11.9-2-5.9-4-11.3-4.4-11.9-0.5-0.8-16.6-1.7-52.2-2.8-51.1-1.6-74.7-2.2-201-5.1-36-0.8-72.1-1.6-80.1-1.9-8-0.2-21.3 0-29.5 0.4-16.2 0.9-25.9 3.2-37.9 9.2-6.2 3.1-40.3 24.9-40.4 25.8-0.1 0.3 5.4 0.7 12.2 0.8 20.2 0.4 92.7 2.2 150.7 3.7 303.9 8.2 314.2 8.2 322.5 12.3 0.9 0.5 1.8 1 3.1 1.6 13.1 6 24 22.3 25.6 38.1 0.3 2.5 0.7 2.9 2.6 2.7 1.9-0.3 2.3 0 2 1.5-0.2 1-1.2 1.7-2.1 1.7-1.4-0.2-1.7 0.8-1.7 5.6 0 4.9 0.3 5.8 2 6.3 1.1 0.3 2 1 2 1.7 0 0.6-0.9 1.4-2 1.7-1.7 0.5-2 1.4-2 6.4 0 4.5 0.4 5.9 1.4 5.9 2.4 0 3 2.1 0.7 2.7-1.8 0.5-2.1 1.3-2.1 6.4 0 4.6 0.3 5.9 1.5 5.9 0.8 0 1.5 0.7 1.5 1.5 0 0.9-0.7 1.8-1.5 2.1-1.1 0.4-1.5 2.1-1.5 6 0 4.1 0.4 5.4 1.5 5.4 0.8 0 1.5 0.9 1.5 2 0 1.1-0.7 2-1.5 2-1.1 0-1.5 1.3-1.5 5.4 0 3.9 0.4 5.5 1.5 6 2 0.7 1.9 3.3-0.1 4.4-1.1 0.6-1.8 2.7-2.2 6.1-0.4 4.7-0.3 5.1 1.7 5.1 1.4 0 2.1 0.6 2.1 2q0 2-2 2c-1.7 0-2 0.7-2 5.4 0 4.5 0.3 5.4 2 5.9 1.1 0.3 2 1.3 2 2.2 0 0.9-0.9 1.9-2 2.2-1.7 0.4-2 1.4-2 5.9 0 3 0.3 5.3 0.8 5.3 3.5-0.6 4.7 3.5 1.2 4.6-1.3 0.4-2.1 1.9-2.6 5.1-0.3 2.5-0.3 4.8 0.1 5.2 0.6 0.7 1 0.8 3.6 1.1 2.1 0.2 0.5 4.6-1.8 4.9-2.1 0.3-2.3 0.9-2.3 5.8 0 3.8 0.4 5.4 1.3 5.3 2.7-0.3 3.7 0.2 3.7 2 0 2-2.5 3.5-4.1 2.5-0.5-0.3-0.9 2-0.9 5 0 5 0.2 5.6 2 5.6 1.1 0 2.3 0.7 2.6 1.5 0.8 1.9-1.5 4.7-3.3 4.1-1-0.4-1.3 0.8-1.3 4.9 0 4.9 0.2 5.5 2 5.5 1.1 0 2.3 0.7 2.6 1.5 0.8 2-1.4 4.6-3.5 4.3-1.3-0.3-1.7 0.8-1.9 4.9-0.3 5-0.2 5.3 2.1 5.3 1.4 0 2.8 0.7 3.1 1.6 0.9 2.2-1.3 4.6-3.6 4.1-1.6-0.5-1.8 0.1-1.8 4.8 0 4.2 0.3 5.2 1.6 5.1 2.1-0.1 3.9 2.7 3 4.9-0.4 1.1-1.3 1.5-2.6 1.2-1.8-0.5-2 0-2 4.9 0 3.1 0.4 5.3 0.9 5 1.7-1.1 4.1 0.6 4.1 2.9 0 2.3-2.4 4-4.1 2.9-0.5-0.3-0.9 1.9-0.9 4.9 0 4.4 0.3 5.4 1.6 5.3 2.1-0.1 3.9 2.7 3 4.9-0.4 1.1-1.3 1.5-2.6 1.2-1.7-0.4-2 0-2 3.3 0 2.1-0.2 4.5-0.5 5.2-0.4 1 0.3 1.4 2.2 1.3 2.4 0 2.8 0.4 2.8 3 0 2.6-0.4 3-2.7 3-2.7-0.1-2.8 0.1-2.8 5 0 4.6 0.2 5.1 2.1 5.1 2.6-0.1 4.5 2.5 3.5 4.9-0.4 1.2-1.4 1.6-3.1 1.2-2.4-0.4-2.5-0.2-2.5 4.8 0 4.6 0.2 5.1 2.1 5.1 2.6-0.1 4.5 2.5 3.5 4.9-0.4 1.2-1.4 1.6-3.1 1.2-2.4-0.4-2.5-0.2-2.5 4.8 0 4.6 0.2 5.1 2.1 5.1 2.6-0.1 4.5 2.5 3.5 4.9-0.4 1.2-1.4 1.6-3 1.3-2.3-0.5-2.5-0.2-2.8 4.6-0.3 5.1-0.3 5.1 2.7 5.1 2.7 0 3 0.3 3 3 0 2.7-0.3 3-3 2.9-2.9-0.1-3 0-3.3 5.3-0.3 5.1-0.2 5.3 2 4.8 3.2-0.7 5 0.7 4.6 3.6-0.2 2-0.9 2.4-3.5 2.4-3.3 0-3.3 0-3.3 5 0 4.8 0.1 5.1 2.6 5 3 0 5 2.4 4 5-0.4 1.3-1.4 1.6-3.6 1.3-2.9-0.4-3-0.3-3 3.8 0 2.3-0.3 5-0.6 5.9-0.6 1.5-0.4 1.5 1.5 0.4 2.7-1.8 5.6-0.1 5.6 3.2 0 2.8-3.6 3.9-6.1 1.9-1.2-1.1-1.4-0.6-1.4 2.7 0 2.1-0.6 6.3-1.4 9.3-1.2 4.8-1.2 5.6 0 6.3 1.7 1 1.8 5.1 0.2 6.5-0.7 0.5-2.2 1.2-3.2 1.3-1.1 0.2-2.4 1.8-3 3.4-0.6 1.7-2.6 5.2-4.4 7.8l-3.3 4.7h2.4c5.3 0 6.3 5.7 1.3 7.5-2.4 0.8-3.1 0.6-4.5-1.1l-1.7-2.1zm-146.5-75.2c68.5 2.9 80.8 3.1 83.9 0.9 3.4-2.4 5.1-7.4 5.1-15.2v-0.4c0-3.4 0-5.3-1-6.4-1.2-1.4-4-1.4-10.4-1.4h-0.5c-4.7 0-35-1.1-67.1-2.4-77.4-3.3-169.8-7.1-231.5-9.6-79.4-3.1-121.3-4.9-131.8-5.6l-9.7-0.6v9.4c0 10.4 1.9 15.4 6.2 16.3 1.3 0.2 21.2 1.2 44.3 2 23.1 0.9 68.3 2.7 100.5 4.1 32.2 1.3 81 3.3 108.5 4.5 27.5 1.1 74.1 3.1 103.5 4.4zm32-36c14 0.7 31.9 1.3 39.7 1.4 13 0.1 14.4 0 16.3-1.9 1.4-1.4 2-3.3 2-6.7 0-2.6 0.3-7 0.6-9.8l0.6-5.1-30.3-1.2c-16.8-0.7-51.1-2.1-76.4-3.1-25.3-1.1-63.4-2.7-84.5-3.5-21.2-0.9-49.5-2-63-2.6-13.5-0.5-47.9-1.9-76.5-3-28.6-1.1-66.9-2.6-85-3.4q-3.6-0.1-6.7-0.3c-21.2-0.9-27.9-1.2-30 1.8-0.9 1.3-0.9 3.3-0.8 6.3q0 1 0 2.1c0 6.5 0.4 8.8 1.7 10.4 0.2 0.2 0.3 0.4 0.4 0.6 1.2 1.7 4.8 1.7 113.9 6 121.9 4.9 232.1 9.6 278 12zm28.5-35.6c9.9 0.5 20.8 0.9 24.2 1l6.3 0.1v-7.9c0-8.3-1.2-12.5-3.9-13.6-1.5-0.6-44-2.5-170.1-7.4-28.9-1.2-73.7-3-99.5-4.1-25.9-1-70.2-2.8-98.5-3.9-28.3-1.1-55.6-2.3-60.7-2.6-7.2-0.5-9.7-0.3-12.1 0.9-7.5 3.9-9.6 12-4.5 17.7l2.8 3 45 2c40.2 1.7 91.2 3.7 213.5 8.4 59 2.3 137.4 5.5 157.5 6.4zm-110-169.7c-4.9 2.2-9.8 2.3-14.5 0.3-10.7-4.7-15.9-18.3-14.7-38.4 1-17.2 5.3-27.7 13.5-33.5 3.7-2.6 5.3-3.1 10.6-3.1 4.9 0 7 0.5 9.7 2.4 8.3 5.7 11.9 15 11.9 31.1 0 23.1-5.2 36-16.5 41.2zm-185.9-3.2c-7.3 3.5-15.4 2.4-21.3-3.1-1.1-1.1-3.4-4.8-4.9-8.1-2.3-5.3-2.8-7.9-3.2-17.7-0.8-20.1 2.9-34.3 10.9-41.5 4.5-4.1 7.3-5 13.9-4.3 8.8 0.8 15.6 8 18.6 19.7 1.3 5.2 1.5 9.2 1.1 19-1 20.1-5.7 31.4-15.1 36zm97.9 64.5c-22.4 4.8-44.3-1.1-57.8-15.4-9.5-10.1-11.1-17.4-4.3-20 3.9-1.5 6.5-0.1 10.6 6 4.6 6.7 8.3 9.8 16 13.4 18.6 8.5 41.7 4 56.6-10.9 5.4-5.5 7-6.6 9.9-6.6 2.6 0 3.9 0.7 5.1 2.5 2.5 4 1 7.3-7.1 15.3-8.5 8.3-17.7 13.3-29 15.7zm-361.5 101c-5.8 4.8-9.7 5.8-12.4 3-2.5-2.5-2.9-5.3-1.1-8.2 2.5-4.3 15.8-13.8 27-19.3 11.5-5.7 20.1-7.9 30.1-7.9 7.9-0.1 10.4 1.4 10.4 6.3 0 4.5-2.9 6.3-11.2 6.9-14 1.1-29 7.8-42.8 19.2zm53.8-118.5c-1.2 2.2-2.1 2.6-6.9 2.8-6.2 0.2-17.6-2.6-25.8-6.3-6.6-3-22.8-13.7-29-19.2-3.6-3.1-4.5-4.5-4.5-7.2 0-3.6 3.1-7.1 6.4-7.1 1 0 4.2 2.1 7.1 4.6 15.1 13 27.2 18.9 47.4 23.1 5.2 1.1 7.6 5.3 5.3 9.3zm555.4-249.7l3.3 6.7 1.2-3.5c2.6-7.5 12.9-19.1 19.4-21.9l3.1-1.3-5.7-3.2c-7.6-4.3-13.6-9.9-16.4-15.6l-2.3-4.6-2.3 4.9c-3 6.5-8.5 11.9-15.3 15l-5.5 2.5 3.6 1.9c5.6 2.9 13.3 11.6 16.9 19.1zm-557.6 299.4c-2.2 2.6-2.9 2.8-11.7 2.9-11.1 0.3-11.9 0.2-26.8-3.7-7.2-1.8-13.6-2.8-17.1-2.7-6.5 0.2-7.8-0.4-9.1-3.8-2.3-6.1 3.8-10.1 14-9 3.1 0.3 11.4 2 18.6 3.7 11.1 2.7 14.2 3.1 21.4 2.7 7.8-0.5 8.5-0.4 10.7 1.8 3 3 3 4.6 0 8.1zm775.4 1.3c-2.2 2.2-3.2 2.3-34.7 1.1-16-0.6-17.3-1-18.7-5.6-0.4-1.4 0.1-3.1 1.5-4.9l2.2-2.7 23.6 0.7c26.1 0.7 28.1 1.2 28.1 6.5 0 1.6-0.9 3.8-2 4.9zm-15.2 71.5c-1.3 0.8-3.2 1.5-4.3 1.5-3.2 0-35.8-22.5-37-25.5-0.7-1.9-0.5-3.1 1.1-5.2 3.9-5.2 6.3-4.4 23.2 7.1 8.5 5.8 16.3 11.3 17.3 12.2 2.7 2.5 2.5 7.9-0.3 9.9zm-14.3-130.1c-9.3 5.3-17.5 9.6-18.3 9.6-1.9 0-6.2-4.6-6.2-6.7 0-1 0.5-2.6 1.2-3.5 2-2.6 34.5-20.8 37.1-20.8 4.7 0 7.4 6.5 4.4 10.2-0.7 0.9-8.8 5.9-18.2 11.2zm-131.6 271.2c-1.4 1.8-5.1 1.9-6.7 0.2-3.3-3.3 1.3-9 5.2-6.4 2.5 1.7 3.2 4.2 1.5 6.2zm48.5-32.1c-2 2-3.9 2-5.9-0.1-2-2-1.6-4.2 1.2-6.1 1.9-1.3 2.3-1.2 4.2 0.7 2.5 2.5 2.6 3.4 0.5 5.5zm-8.8 8.8c-1.5 1-2.8 0.9-4.9-0.3-3.5-2.1-1.4-7 2.9-7 3.8 0 5.1 5.2 2 7.3zm-7.7 7.3c-2.3 2.8-6.9 1-6.9-2.6 0-4.3 7.2-5.4 7.8-1.1 0.2 1.2-0.2 2.9-0.9 3.7zm-8.5-7.9c-2.2 1.7-3.7 1.7-5.2 0.1-2.9-2.8-0.2-7.2 4-6.6 3 0.4 3.7 4.7 1.2 6.5zm0.5 15.9c-0.6 0.8-1.9 1.4-2.9 1.4-4 0-5.2-5.2-1.8-7.3 3.5-2.2 7.4 2.7 4.7 5.9zm-15.4-17.7c-0.5 1.6-1.5 2.1-3.6 2.1-4.4 0-5.5-4.9-1.7-7.3 2.5-1.6 6.3 2.2 5.3 5.2zm57.1-56.1c-0.9 2.8-4.2 3.4-6.8 1.3-1.8-1.4-1.9-2-0.9-3.9 2.1-3.9 9-1.6 7.7 2.6zm-57.2 73c-2.5 4-7.9 1.8-7.2-2.9 0.2-1.8 0.9-2.4 3.2-2.4 3.5 0 5.6 2.7 4 5.3zm7-7.1c-1 0.8-2.1 1.3-2.4 1.3-0.4 0-1.4-0.5-2.4-1.3-2.2-1.5-1.8-4.5 0.6-6 3.8-2.4 7.8 3.4 4.2 6zm25.6-26.6c0 3.1-3.4 4.2-6.2 2-1.9-1.6-2.1-2.3-1.2-3.7 2.2-3.6 7.4-2.4 7.4 1.7zm7.8-8.4c0.4 3.9-2.7 5.1-6.1 2.3-1.8-1.5-2-2.2-1.1-3.6 0.7-1.1 2.3-1.9 4-1.9 2.5 0 2.9 0.5 3.2 3.2zm-32.3 18.3c-1 1.6-5.1 1.3-6.6-0.5-1.8-2.2 0-4.9 3.4-5.3 2.1-0.2 2.7 0.2 3.2 2.2 0.4 1.4 0.4 3 0 3.6zm40.2-40.6c-0.8 2-5 2.2-6.7 0.2-0.9-1.1-0.9-1.9 0-3.6 2-3.8 8.2-0.7 6.7 3.4zm-24 8c-0.8 2-5 2.2-6.7 0.2-0.9-1.1-0.9-1.9 0-3.6 2-3.8 8.2-0.7 6.7 3.4zm-8 8c-0.8 2-5 2.2-6.7 0.2-0.9-1.1-0.9-1.9 0-3.6 2-3.8 8.2-0.7 6.7 3.4zm31.8-1.9c0 2.5-0.5 3.1-2.6 3.3-3.5 0.5-5.4-1.9-3.9-4.8 0.8-1.5 1.9-2 3.8-1.8 2.2 0.3 2.7 0.8 2.7 3.3zm-39.8 9.9c-0.8 2.1-5.1 2.1-6.8 0.1-1.7-2.2 0-5 3.1-5 2.7 0 4.6 2.6 3.7 4.9zm16 0c-0.8 2.1-5.1 2.1-6.8 0.1-1.7-2.2 0-5 3.1-5 2.7 0 4.6 2.6 3.7 4.9zm-8 8c-0.8 2.1-5.1 2.1-6.8 0.1-1.7-2.2 0-5 3.1-5 2.7 0 4.6 2.6 3.7 4.9zm-8-24c-0.9 2.2-5.4 2.1-6.6-0.2-1.3-2.4 0.8-5.5 3.3-5 2.4 0.5 4.1 3.1 3.3 5.2zm24 8c-0.9 2.2-5.4 2.1-6.6-0.2-1.3-2.4 0.8-5.5 3.3-5 2.4 0.5 4.1 3.1 3.3 5.2zm7.8-9.9c0 2.6-0.5 3.1-2.7 3.4-1.8 0.2-3-0.3-3.7-1.7-1.5-2.6 0.7-5.5 3.9-5 2 0.3 2.5 0.9 2.5 3.3zm-16 32c0 2.5-0.5 3.1-2.6 3.3-1.5 0.2-3.2-0.3-3.9-1.3-2-2.3 0-5 3.6-5 2.5 0 2.9 0.4 2.9 3zm-15.7-63c-0.3 2.1-4.6 3.4-6.1 1.9-1.5-1.5-0.7-5.2 1.3-5.9 2.7-0.8 5.2 1.3 4.8 4zm48 0c-0.3 2.1-4.6 3.4-6.1 1.9-1.5-1.5-0.7-5.2 1.3-5.9 2.7-0.8 5.2 1.3 4.8 4zm-8 8c-0.3 2.1-4.6 3.4-6.1 1.9-1.5-1.5-0.7-5.2 1.3-5.9 2.7-0.8 5.2 1.3 4.8 4zm-40 8c-0.3 2.1-4.6 3.4-6.1 1.9-1.5-1.5-0.7-5.2 1.3-5.9 2.7-0.8 5.2 1.3 4.8 4zm16 0c-0.3 2.1-4.6 3.4-6.1 1.9-1.5-1.5-0.7-5.2 1.3-5.9 2.7-0.8 5.2 1.3 4.8 4zm-8.1 8.9c-0.8 2-5.6 2.2-6.3 0.2-1.1-2.8 0-5.1 2.5-5.1 2.7 0 4.7 2.5 3.8 4.9zm16 0c-0.8 2-5.6 2.2-6.3 0.2-1.1-2.8 0-5.1 2.5-5.1 2.7 0 4.7 2.5 3.8 4.9zm-0.2-48.5c-0.4 1.4-1.5 2.1-3.1 2.1-2.6 0-4-2-3-4.5 1.5-4.1 7.5-1.8 6.1 2.4zm-15.8 16.5c-0.4 0.9-1.8 1.6-3.2 1.6-2.9 0-4.3-2.4-2.8-4.8 0.5-0.9 1.8-1.7 2.8-1.7 2.2 0 4 2.8 3.2 4.9zm16 0c-0.4 0.9-1.8 1.6-3.2 1.6-2.9 0-4.3-2.4-2.8-4.8 0.5-0.9 1.8-1.7 2.8-1.7 2.2 0 4 2.8 3.2 4.9zm16 0c-0.4 0.9-1.8 1.6-3.2 1.6-2.9 0-4.3-2.4-2.8-4.8 0.5-0.9 1.8-1.7 2.8-1.7 2.2 0 4 2.8 3.2 4.9zm-24 8c-0.4 0.9-1.8 1.6-3.2 1.6-2.9 0-4.3-2.4-2.8-4.8 0.5-0.9 1.8-1.7 2.8-1.7 2.2 0 4 2.8 3.2 4.9zm16 0c-0.4 0.9-1.8 1.6-3.2 1.6-2.9 0-4.3-2.4-2.8-4.8 0.5-0.9 1.8-1.7 2.8-1.7 2.2 0 4 2.8 3.2 4.9zm-24 8c-0.4 0.9-1.8 1.6-3.2 1.6-2.9 0-4.3-2.4-2.8-4.8 0.5-0.9 1.8-1.7 2.8-1.7 2.2 0 4 2.8 3.2 4.9zm16 0c-0.4 0.9-1.8 1.6-3.2 1.6-2.9 0-4.3-2.4-2.8-4.8 0.5-0.9 1.8-1.7 2.8-1.7 2.2 0 4 2.8 3.2 4.9zm8 8c-0.4 0.9-1.8 1.6-3.2 1.6-2.9 0-4.3-2.4-2.8-4.8 0.5-0.9 1.8-1.7 2.8-1.7 2.2 0 4 2.8 3.2 4.9zm-15.9-32.8c-0.3 2-4.7 3.2-6.1 1.8-1.4-1.3-0.7-4.3 1.1-5.3 2.5-1.3 5.5 0.9 5 3.5zm16 0c-0.3 2-4.7 3.2-6.1 1.8-1.4-1.3-0.7-4.3 1.1-5.3 2.5-1.3 5.5 0.9 5 3.5zm-32-0.1c-0.4 2.5-4 3.2-5.8 1.1-1.4-1.8-0.7-4.3 1.5-5.2 2.1-0.8 4.6 1.6 4.3 4.1zm8-8.1c-0.4 2.5-3.7 3.4-5.6 1.5-1.6-1.7-1.5-3.3 0.2-4.8 2.2-1.8 5.8 0.4 5.4 3.3zm-8-7.9c-0.4 2.4-3.7 3.2-5.6 1.4-1.8-1.8-1.5-3.6 0.8-4.9 2.7-1.4 5.2 0.5 4.8 3.5zm47.7 0.6c-0.8 2.3-5.3 2.7-6.2 0.4-0.9-2.4 0.5-4.5 3.1-4.5 2.9 0 3.9 1.3 3.1 4.1zm0 16c-0.8 2.3-5.3 2.7-6.2 0.4-0.9-2.4 0.5-4.5 3.1-4.5 2.9 0 3.9 1.3 3.1 4.1zm-8-9.1c0 2-0.6 2.6-2.8 2.9-1.8 0.2-2.9-0.3-3.3-1.3-1.1-2.8 0.4-4.7 3.3-4.4 2.2 0.3 2.8 0.9 2.8 2.8zm-16-14.9c-0.8 2.3-3.7 2.6-5.5 0.5-1.8-2.2-0.5-4.6 2.4-4.6 2.9 0 3.9 1.3 3.1 4.1zm15.5 0.4c-0.7 0.9-2.1 1.5-3.2 1.5-1 0-2.1-0.6-2.5-1.5-1.4-3.8 3-6.2 5.7-3 1 1.2 1 1.8 0 3zm-24 8.1c-0.7 0.8-1.8 1.4-2.5 1.4-1.9 0-3.8-2.7-3.2-4.4 0.4-0.9 1.8-1.6 3.2-1.6 3 0 4.3 2.4 2.5 4.6zm15.9-15.9c-1.5 1.8-3.4 1.7-4.9-0.1-1.8-2.2-0.5-4.6 2.3-4.6 2.8 0 4.3 2.6 2.6 4.7zm0.6 14.3c0 3-3.5 4-5.5 1.6-1.9-2.4-0.5-4.7 2.7-4.4 2.2 0.3 2.8 0.9 2.8 2.8zm15.5-14.5c-1.6 2-3.4 2-5 0.1-1.6-2-0.6-4.6 1.8-4.6 2.9 0 4.7 2.7 3.2 4.5zm-32 0.1c-1.7 1.9-3.7 1.8-4.9-0.3-1.3-2.6-0.3-4.3 2.5-4.3 2.9 0 4.1 2.4 2.4 4.6zm-7.5 6.4c0 3.2-3.9 4.1-5.4 1.3-1.3-2.5 0.1-4.5 3-4.1 1.8 0.3 2.4 1 2.4 2.8zm15.5-14.5c-1.7 2-3.7 1.9-4.8-0.2-2-3.7 2.1-6 4.8-2.8 1 1.2 1 1.8 0 3zm23.5-9.5c0 1.9-0.6 2.6-2.3 2.9-1.3 0.2-2.5-0.3-2.8-1.3-1-2.6 0.4-4.7 2.8-4.4 1.7 0.3 2.3 1 2.3 2.8zm-47 16c0 1.9-0.6 2.6-2.3 2.9-1.3 0.2-2.5-0.3-2.8-1.3-1-2.6 0.4-4.7 2.8-4.4 1.7 0.3 2.3 1 2.3 2.8zm39.4-22.8c-0.5 1-1.6 1.8-2.4 1.8-0.8 0-1.9-0.8-2.4-1.8-1.7-3.1 2.1-5.6 4.6-3 0.8 0.8 0.9 1.7 0.2 3zm-7.9 8.3c-0.7 0.9-1.9 1.5-2.7 1.5-0.7 0-1.6-0.6-2-1.5-1.4-3.7 2.2-6 4.7-3 1 1.2 1 1.8 0 3zm-32 0.1c-1.4 1.7-2 1.7-3.9 0.6-2-1.3-0.9-4.6 1.6-5 2.7-0.4 4.1 2.2 2.3 4.4zm8 8c-1.4 1.7-2 1.7-3.9 0.6-2-1.3-0.9-4.6 1.6-5 2.7-0.4 4.1 2.2 2.3 4.4zm-8.2-23.4c-1.8 1.1-2.4 1.1-3.8-0.6-1.8-2.2-0.5-4.8 2.2-4.4 2.6 0.4 3.7 3.7 1.6 5zm8.2 7.4c-0.7 0.8-1.6 1.4-2 1.4-1.5 0-3.2-2.9-2.7-4.4 0.4-0.9 1.6-1.6 2.7-1.6 2.5 0 3.6 2.6 2 4.6zm8-8.1c-1.3 1.6-1.7 1.7-3.8 0.9-1.7-0.7-1.5-4.3 0.4-5 0.8-0.4 2.3 0.1 3.1 1 1.3 1.3 1.4 1.8 0.3 3.1zm8-40c-1.3 1.6-1.7 1.7-3.8 0.9-1.7-0.7-1.5-4.3 0.4-5 0.8-0.4 2.3 0.1 3.1 1 1.3 1.3 1.4 1.8 0.3 3.1zm7.8 40.2c-1.1 1.4-3.1 1.8-4.1 0.7-1.3-1.3-0.7-4.4 0.9-5 2.3-0.9 4.8 2.5 3.2 4.3zm-8 8c-1.1 1.4-3.1 1.8-4.1 0.7-1.3-1.3-0.7-4.4 0.9-5 2.3-0.9 4.8 2.5 3.2 4.3zm-7.9 8c-1.3 1.6-1.9 1.6-3.8 0.5-1.9-1.3-0.9-4.6 1.5-5 2.5-0.3 3.9 2.5 2.3 4.5zm30.5-79.3l-0.2 0.1c-0.9 0.4-1.4 0.5-1.7 0.4-0.5-0.1-0.8-0.5-1.6-1.4-1-1.3-1-1.8 0.3-3.1 0.9-0.9 2.3-1.4 3.2-1 2.1 0.8 2 4.3 0 5zm-6.9 85.6c0 2.9-2.6 3.9-4.5 1.6-1.8-2.2-0.5-4.8 2.2-4.4 1.7 0.3 2.3 1 2.3 2.8zm8.3-23.7c-0.4 2.7-3 3.4-4.8 1.2-1.1-1.3-1.1-1.8 0.2-3.1 2.2-2.2 5-1 4.6 1.9zm-23.8-22.8c-0.7 0.9-1.6 1.5-2 1.5-1.5 0-3.2-2.9-2.7-4.4 0.8-2 3.1-2 4.7-0.1 1 1.2 1 1.8 0 3zm-8 8c-0.7 0.9-1.6 1.5-2 1.5-1.5 0-3.2-2.9-2.7-4.4 0.8-2 3.1-2 4.7-0.1 1 1.2 1 1.8 0 3zm8 8c-0.7 0.9-1.6 1.5-2 1.5-1.5 0-3.2-2.9-2.7-4.4 0.8-2 3.1-2 4.7-0.1 1 1.2 1 1.8 0 3zm-15.3-18.9c0.3 0.9-0.1 2.2-0.9 3-1.2 1.2-1.7 1.3-3.3 0.1-2.3-1.7-1.4-4.7 1.5-4.7 1.1 0 2.3 0.8 2.7 1.6zm0 16c0.3 0.9-0.1 2.2-0.9 3-1.2 1.2-1.7 1.3-3.3 0.1-2.3-1.7-1.4-4.7 1.5-4.7 1.1 0 2.3 0.8 2.7 1.6zm16-77.1c-0.8 2-3.1 2-4.8 0-1-1.3-1-1.8 0.4-3.2 1.6-1.6 1.8-1.6 3.3 0 0.9 0.9 1.4 2.3 1.1 3.2zm23.1 38.9c-0.4 2.6-3.1 3.3-4.8 1.1-1.1-1.3-1.1-1.8 0.1-3 2.1-2.1 5.1-0.8 4.7 1.9zm0 15.9c-0.4 2.6-3 3.4-4.7 1.5-0.8-1.1-0.8-1.9 0.3-3.2 1.8-2.5 4.8-1.3 4.4 1.7zm-15.9-15.1c-1.2 2.2-2.3 2.3-3.9 0.4-2.5-3 1-6.1 3.7-3.4 0.8 0.8 0.9 1.7 0.2 3zm15.6 30.8c0 2.9-1.5 3.5-3.9 1.8-2.3-1.8-1.1-5 1.8-4.6 1.5 0.3 2.1 1.1 2.1 2.8zm0.3-63.6c-0.4 2.7-3.1 3.3-4.9 1.1-1.1-1.4-1.1-1.9 0.5-3 2.4-1.8 4.8-0.7 4.4 1.9zm-0.1-15c-0.8 2.1-3.1 2.1-4.8 0.1-1-1.3-1-1.8 0.2-3 1.3-1.3 1.8-1.3 3.3-0.1 1.2 0.8 1.7 2 1.3 3zm-23.7 40.1c-0.7 0.8-1.6 1.5-2 1.5-0.4 0-1.4-0.7-2.1-1.5-1-1.3-1-1.8 0.4-3.2 1.6-1.6 1.8-1.6 3.3 0 1.4 1.4 1.5 1.9 0.4 3.2zm-16.2 0.7c-1.9 1.2-2.8 1-3.5-0.7-0.8-2.3 0.5-4.6 2.4-4.3 2.2 0.5 2.9 3.8 1.1 5zm9.2 5.3c0 2.5-2.5 3.6-4.6 2.1-1.8-1.3-1.8-1.6-0.3-3 1.7-1.8 4.9-1.1 4.9 0.9zm14.8-30.8c-0.3 1.9-2.9 3-4.1 1.7-1.2-1.2-0.8-4.1 0.6-4.7 2-0.7 3.9 0.8 3.5 3zm8 8c-0.3 1.9-2.9 3-4.1 1.7-1.2-1.2-0.8-4.1 0.6-4.7 2-0.7 3.9 0.8 3.5 3zm-31-0.1c-0.3 1.9-1.6 2.6-3.6 1.8-1.8-0.7-1.5-4 0.4-4.8 2.1-0.8 3.7 0.7 3.2 3zm-8.1-10.3c1.5 1.6 1.6 1.9 0.2 3.3-1.3 1.3-1.8 1.3-3.5 0-1.8-1.4-1.8-1.5-0.2-3.2 1.7-1.7 1.9-1.7 3.5-0.1zm15 48c1.5 1.6 1.6 1.9 0.2 3.3-1.3 1.3-1.8 1.3-3.5 0-1.8-1.4-1.8-1.5-0.2-3.2 1.7-1.7 1.9-1.7 3.5-0.1zm16-60.4c-1.6 1.6-3.7 1.4-4.3-0.3-0.8-2 0.3-3.6 2.5-3.6 2.3 0 3.3 2.4 1.8 3.9zm0.6-32.3c-0.5 1.5-3.5 2-4.7 0.8-1.1-1.2-0.7-3.4 0.9-4 2-0.8 4.5 1.4 3.8 3.2zm15 0c-0.5 1.5-3.5 2-4.7 0.8-1.1-1.2-0.7-3.4 0.9-4 2-0.8 4.5 1.4 3.8 3.2zm-7.8 118.4c0 2.9-3.2 4.1-4.1 1.6-0.9-2.4 0.4-4.7 2.3-4.4 1.1 0.2 1.8 1.3 1.8 2.8zm0-48c0 1.6-0.7 2.6-1.8 2.9-1.9 0.3-3.2-2.1-2.3-4.4 0.9-2.5 4.1-1.3 4.1 1.5zm-15.1-62.5c-0.7 1.8-2.5 2-4.1 0.4-1.6-1.5-0.5-3.9 1.7-3.9 2.3 0 3.2 1.4 2.4 3.5zm0 16c-0.7 1.8-2.5 2-4.1 0.4-1.6-1.5-0.5-3.9 1.7-3.9 2.3 0 3.2 1.4 2.4 3.5zm-0.7-34.2c1.6 1.6 1.6 1.9 0.1 3.3-1.4 1.4-1.7 1.4-3.2-0.1-1.6-1.6-1.6-1.9-0.2-3.3 1.4-1.4 1.7-1.4 3.3 0.1zm-23.2 120.2c0 1.3-0.8 2.2-2.2 2.4-2.5 0.3-3.6-1-2.7-3.3 0.9-2.4 4.9-1.6 4.9 0.9zm16.5-48c0 1.7-2.2 3.4-3.8 2.8-1.4-0.5-1.7-3.9-0.3-4.7 1.3-0.8 4.1 0.5 4.1 1.9zm6.9-5.9c-0.6 0.8-1.5 1.4-1.9 1.4-1.4 0-3.2-2.8-2.5-3.9 0.3-0.6 1.4-1.1 2.5-1.1 2.5 0 3.4 1.8 1.9 3.6zm15.9-17.3c-0.5 3.8-4.8 3.5-4.8-0.4 0-1.3 0.7-1.9 2.6-1.9 2 0 2.5 0.5 2.2 2.3zm-195.3 273.6c-0.3 0.7-1.5 1.1-2.5 1.1-2.7 0-3.5-1.9-1.6-3.8 1.5-1.5 1.7-1.5 3.2 0 0.9 0.9 1.3 2.1 0.9 2.7zm156.4-280.3c-1.4 1.7-2.2 1.8-3.6 0.3-1.6-1.5-0.5-3.9 1.7-3.9 2.5 0 3.4 1.8 1.9 3.6zm-0.1 30.1c0.2 1.1-0.4 2.3-1.2 2.7-1.9 0.7-4-1.9-3.2-3.9 0.8-2.2 4-1.4 4.4 1.2zm31 32c0.2 1.1-0.4 2.3-1.2 2.7-1.9 0.7-4-1.9-3.2-3.9 0.8-2.2 4-1.4 4.4 1.2zm-171 217c0.2 1.1-0.4 2.3-1.2 2.7-1.9 0.7-4-1.9-3.2-3.9 0.8-2.2 4-1.4 4.4 1.2zm186.7-296.1c0 1.2-0.8 2.1-2.1 2.2-2.4 0.4-3.7-1.7-2.5-3.7 1.2-1.9 4.6-0.8 4.6 1.5zm-15.7 48c-0.4 2.4-2.2 2.8-3.8 0.9-1.1-1.3-1.1-1.8 0.3-3.2 2-2 4.1-0.6 3.5 2.3zm-120.8 248.4c0 1.4-0.7 2-2 2-2.4 0-3.8-2.6-2.2-4.2 1.5-1.5 4.2-0.1 4.2 2.2zm144-320c0 1.4-0.7 2-2 2-2.4 0-3.8-2.6-2.2-4.2 1.5-1.5 4.2-0.1 4.2 2.2zm-15.5 95c0 2.6-1.3 3.5-3.4 2.2-1.9-1.3-0.9-4.7 1.4-4.7 1.4 0 2 0.7 2 2.5zm0 16c0 2.6-1.3 3.5-3.4 2.2-1.9-1.3-0.9-4.7 1.4-4.7 1.4 0 2 0.7 2 2.5zm-22.5-118.4c0 1.4-2 2.3-3.8 1.7-1.6-0.6-1.6-2.7 0.1-4.1 1.5-1.2 3.7 0.3 3.7 2.4zm14.8 30.7c-0.4 2.6-3.6 3.6-4.4 1.4-0.8-2.1 0.3-3.7 2.7-3.7 1.5 0 1.9 0.6 1.7 2.3zm8 8c-0.4 2.6-3.6 3.6-4.4 1.4-0.8-2.1 0.3-3.7 2.7-3.7 1.5 0 1.9 0.6 1.7 2.3zm-145.3 289.6c-0.9 1.6-4.2 1.4-4.8-0.3-0.3-0.8 0.1-2 0.9-2.6 1.2-1 1.8-1 3.1 0.3 0.8 0.8 1.2 2 0.8 2.6zm137.3-202.1c0.3 1.8-0.2 2.2-2.3 2.2-2.2 0-2.6-0.4-2.3-2.2 0.2-1.5 1-2.3 2.3-2.3 1.3 0 2.1 0.8 2.3 2.3zm-7.9-133.2c-2 2.4-3.9 1.6-3.9-1.7 0-1.2 0.7-1.9 1.9-1.9 2.6 0 3.6 1.8 2 3.6zm-8 71c-2 2.4-3.9 1.6-3.9-1.7 0-1.2 0.7-1.9 1.9-1.9 2.6 0 3.6 1.8 2 3.6zm-188.5 264.5c-0.8 1.4-3.4 1.1-4-0.5-0.7-1.8 0.3-3.6 2-3.6 1.6 0 2.9 2.8 2 4.1zm212-366.6c-0.8 1.9-3.3 2-4 0.1-0.7-1.8 0.3-3.6 2.1-3.6 1.8 0 2.6 1.5 1.9 3.5zm-38.5 54.6c-2 1.3-2.9 1.2-3.5-0.5-0.8-1.9 0.3-3.6 2.2-3.6 2 0 3 3.1 1.3 4.1zm-123.5 312c-0.3 0.5-1.4 0.9-2.5 0.9-1.6 0-2-0.5-1.7-2.2 0.1-1.2 1-2.4 1.9-2.5 1.7-0.4 3.3 2.3 2.3 3.8zm162.4-352.2c-0.2 0.9-1.3 1.8-2.6 2-1.7 0.2-2.2-0.2-2.2-1.7 0-1.1 0.4-2.3 0.9-2.6 1.6-1 4.2 0.6 3.9 2.3zm-262.5 351.9c-0.6 1.7-3.3 1.6-3.9-0.2-0.7-1.8 0.3-3.6 2-3.6 1.6 0 2.5 2 1.9 3.8zm-16.5-1c-0.2 0.9-1.1 1.9-2.1 2.1-2 0.4-3.4-2.5-1.9-4.1 1.5-1.5 4.4-0.1 4 2zm50 0c-0.2 0.9-1.1 1.9-2.1 2.1-2 0.4-3.4-2.5-1.9-4.1 1.5-1.5 4.4-0.1 4 2zm206-343c-0.2 0.9-1.1 1.9-2.1 2.1-2 0.4-3.4-2.5-1.9-4.1 1.5-1.5 4.4-0.1 4 2zm15 0c-0.2 0.9-1.1 1.9-2.1 2.1-2 0.4-3.4-2.5-1.9-4.1 1.5-1.5 4.4-0.1 4 2zm8 8c-0.2 0.9-1.1 1.9-2.1 2.1-2 0.4-3.4-2.5-1.9-4.1 1.5-1.5 4.4-0.1 4 2zm15 0c-0.2 0.9-1.1 1.9-2.1 2.1-2 0.4-3.4-2.5-1.9-4.1 1.5-1.5 4.4-0.1 4 2zm-46 15c-0.2 0.9-1.1 1.9-2.1 2.1-2 0.4-3.4-2.5-1.9-4.1 1.5-1.5 4.4-0.1 4 2zm8 8c-0.2 0.9-1.1 1.9-2.1 2.1-2 0.4-3.4-2.5-1.9-4.1 1.5-1.5 4.4-0.1 4 2zm23 8c-0.2 0.9-1.1 1.9-2.1 2.1-2 0.4-3.4-2.5-1.9-4.1 1.5-1.5 4.4-0.1 4 2zm-23 8c-0.2 0.9-1.1 1.9-2.1 2.1-2 0.4-3.4-2.5-1.9-4.1 1.5-1.5 4.4-0.1 4 2zm0 16c-0.2 0.9-1.1 1.9-2.1 2.1-2 0.4-3.4-2.5-1.9-4.1 1.5-1.5 4.4-0.1 4 2zm7.1-85.2c-1.5 1.8-2.8 1.8-3.5 0-0.7-1.8 0.3-3.6 2.1-3.6 2 0 2.8 1.9 1.4 3.6zm-23 70c-1.5 1.8-2.8 1.8-3.5 0-0.7-1.8 0.3-3.6 2.1-3.6 2 0 2.8 1.9 1.4 3.6zm38-101c-1.5 1.8-2.8 1.8-3.5 0-0.7-1.8 0.3-3.6 2.1-3.6 2 0 2.8 1.9 1.4 3.6zm-30.1 91.6c-0.4 2.7-2.1 3.4-3.8 1.4-1.5-1.8-0.5-3.6 2.1-3.6 1.5 0 1.9 0.6 1.7 2.2zm0 16c-0.4 2.7-2.1 3.4-3.8 1.4-1.5-1.8-0.5-3.6 2.1-3.6 1.5 0 1.9 0.6 1.7 2.2zm0 16c-0.4 2.7-2.1 3.4-3.8 1.4-1.5-1.8-0.5-3.6 2.1-3.6 1.5 0 1.9 0.6 1.7 2.2zm0.2-63.3c0 2.5-2.5 3.5-4 1.6-1.5-1.7-0.5-3.5 2-3.5 1.3 0 2 0.7 2 1.9zm23 8c0 2.5-2.5 3.5-4 1.6-1.5-1.7-0.5-3.5 2-3.5 1.3 0 2 0.7 2 1.9zm15 0c0 2.5-2.5 3.5-4 1.6-1.5-1.7-0.5-3.5 2-3.5 1.3 0 2 0.7 2 1.9zm-0.2-15.1c-0.2 0.9-1.1 1.9-2 2-1.8 0.4-3.3-2.7-1.9-4.1 1.4-1.4 4.3 0.1 3.9 2.1zm-7 23.1c-0.2 0.9-1.1 1.8-2.1 2-2 0.3-3.5-2.5-2-4 1.4-1.4 4.4 0.1 4.1 2zm-16.1-76c-1.5 1.5-2.7 1.4-3.3-0.3-0.7-1.8 0.3-3.6 2-3.6 1.9 0 2.7 2.5 1.3 3.9zm-121.2 389c-1 1.7-3.5 1.4-4.2-0.4-0.3-0.9-0.1-2.1 0.6-2.7 1.4-1.4 4.7 1.4 3.6 3.1zm25 8c-1 1.7-3.5 1.4-4.2-0.4-0.3-0.9-0.1-2.1 0.6-2.7 1.4-1.4 4.7 1.4 3.6 3.1zm119.1-374.4c-0.6 1.8-3.2 2.1-4.2 0.4-1-1.7 2.3-4.5 3.7-3.1 0.6 0.6 0.9 1.8 0.5 2.7zm7.9 23.4c-1 1.7-3.5 1.4-4.2-0.4-0.3-0.9-0.1-2.1 0.6-2.7 1.4-1.4 4.7 1.4 3.6 3.1zm-45.6-0.2c-0.6 0.7-1.5 1.3-1.9 1.3-0.4 0-1.3-0.6-1.9-1.3-0.9-1.1-0.8-1.7 0.4-2.6 2.1-1.8 5.1 0.5 3.4 2.6zm-8.4 116.8q0 2-2.3 2.4c-2 0.2-2.3-0.1-2-2 0.4-3 4.3-3.3 4.3-0.4zm8 8q0 2-2.3 2.4c-2 0.2-2.3-0.1-2-2 0.4-3 4.3-3.3 4.3-0.4zm-8 8q0 2-2.3 2.4c-2 0.2-2.3-0.1-2-2 0.4-3 4.3-3.3 4.3-0.4zm-206.7 217.3c-0.2 0.9-1.1 1.9-2 2-1.8 0.4-3-1.9-1.8-3.7 1.1-1.9 4.2-0.5 3.8 1.7zm223-374c-0.2 0.9-1.1 1.9-2 2-1.8 0.4-3-1.9-1.8-3.7 1.1-1.9 4.2-0.5 3.8 1.7zm15.2 15.2c0 2.2-3.4 2.9-4.5 1-0.9-1.4 0.3-3 2.5-3 1.3 0 2 0.7 2 2zm15 0c0 1.4-0.7 2-2 2-2.2 0-3.4-1.5-2.5-3 1.1-1.8 4.5-1.1 4.5 1zm-194.7 351.6c-0.3 0.8-1.2 1.4-2 1.4-1.8 0-2.9-2.8-1.5-4.2 1.5-1.4 4.3 0.8 3.5 2.8zm172-343c-0.3 0.8-1.2 1.4-2 1.4-1.8 0-2.9-2.8-1.5-4.2 1.5-1.4 4.3 0.8 3.5 2.8zm7.3-23.1c-0.7 1.9-3.2 2-4 0.1-0.7-2 2.1-4.2 3.6-2.8 0.6 0.6 0.8 1.8 0.4 2.7zm-262.6 364.9c0 2.1-2.7 2.8-4.1 1-0.9-1-0.9-1.7-0.1-2.5 1.3-1.4 4.2-0.4 4.2 1.5zm233-366c0 2.1-2.7 2.8-4.1 1-0.9-1-0.9-1.7-0.1-2.5 1.3-1.4 4.2-0.4 4.2 1.5zm-266.5 364.7c0.4 0.6 0.1 1.8-0.6 2.5-1.8 1.7-4.4 0.3-3.6-2 0.7-1.8 3.2-2.1 4.2-0.5zm50 0c0.4 0.6 0.1 1.8-0.6 2.5-1.8 1.7-4.4 0.3-3.6-2 0.7-1.8 3.2-2.1 4.2-0.5zm216-335c0.4 0.6 0.1 1.8-0.6 2.5-1.8 1.7-4.4 0.3-3.6-2 0.7-1.8 3.2-2.1 4.2-0.5zm23-36.2c-1 1.7-3.5 1.4-4.2-0.5-0.8-2.2 1.8-3.6 3.6-1.9 0.7 0.7 1 1.8 0.6 2.4zm-23 54c-1 1.7-3.5 1.4-4.2-0.5-0.8-2.2 1.8-3.6 3.6-1.9 0.7 0.7 1 1.8 0.6 2.4zm-165.9 319.6c-0.7 1.9-2 2-3.5 0.2-0.9-1.1-0.8-1.7 0.4-2.7 1.9-1.6 4.1 0.1 3.1 2.5zm-33.7 0.2c-1.5 1.8-2.8 1.7-3.6-0.2-0.9-2.4 1.2-4.1 3.2-2.5 1.1 1 1.2 1.6 0.4 2.7zm207-389c-1.5 1.8-2.8 1.7-3.6-0.2-0.9-2.4 1.2-4.1 3.2-2.5 1.1 1 1.2 1.6 0.4 2.7zm30.3 15.7c-0.7 0.8-2.7 0.8-3.5 0-1.4-1.4-0.7-3.4 1.2-3.4 1.9 0 3.5 2.3 2.3 3.4zm-7.2-8.9c0 1.8-3.6 2.1-4.6 0.5-0.9-1.6 1.1-3.3 3-2.6 0.9 0.3 1.6 1.3 1.6 2.1zm-288 389c0 1.8-3.6 2.1-4.6 0.5-0.9-1.6 1.1-3.3 3-2.6 0.9 0.3 1.6 1.3 1.6 2.1zm295.3-413c0.9 2.2-1.8 3.9-3.3 2.1-0.6-0.8-0.9-1.9-0.5-2.5 0.9-1.5 3.2-1.3 3.8 0.4zm-153.6 405.9c-0.8 2-2.1 2.1-3.6 0.3-0.9-1.1-0.8-1.7 0.2-2.5 1.7-1.4 4.1 0.2 3.4 2.2zm123.2-373.7c-1.5 1.8-2.8 1.7-3.6-0.3-0.8-2 1.7-3.6 3.4-2.2 1 0.8 1 1.4 0.2 2.5zm-298.4 380.3c0 0.9-1 1.7-2.3 1.9-1.7 0.2-2.2-0.2-2.2-1.9 0-1.6 0.5-2 2.2-1.8 1.3 0.2 2.3 1 2.3 1.8zm16.5-0.1c0 2.4-2.9 3.7-3.6 1.7-0.3-0.8-0.3-1.9 0.1-2.5 1-1.8 3.5-1.2 3.5 0.8zm-25-7.4c0 0.9-0.9 1.5-2 1.5-2.3 0-3.2-1.1-2-2.9 1-1.7 4-0.6 4 1.4zm49.6 1c-0.3 0.8-1 1.5-1.6 1.5-1.6 0-2.4-2.9-1.1-4.2 1.5-1.5 3.6 0.5 2.7 2.7zm67 0c-0.3 0.8-1 1.5-1.6 1.5-1.6 0-2.4-2.9-1.1-4.2 1.5-1.5 3.6 0.5 2.7 2.7zm50 0c-0.3 0.8-1 1.5-1.6 1.5-1.6 0-2.4-2.9-1.1-4.2 1.5-1.5 3.6 0.5 2.7 2.7zm50 0c-0.3 0.8-1 1.5-1.6 1.5-1.6 0-2.4-2.9-1.1-4.2 1.5-1.5 3.6 0.5 2.7 2.7zm-318-1c-0.3 0.8-1 1.5-1.6 1.5-1.6 0-2.4-2.9-1.1-4.2 1.5-1.5 3.6 0.5 2.7 2.7zm453-388c-0.3 0.8-1 1.5-1.6 1.5-1.6 0-2.4-2.9-1.1-4.2 1.5-1.5 3.6 0.5 2.7 2.7zm0 31c-0.3 0.8-1 1.5-1.6 1.5-1.6 0-2.4-2.9-1.1-4.2 1.5-1.5 3.6 0.5 2.7 2.7zm-37-54c-0.3 0.8-1 1.5-1.6 1.5-1.6 0-2.4-2.9-1.1-4.2 1.5-1.5 3.6 0.5 2.7 2.7zm15 0c-0.3 0.8-1 1.5-1.6 1.5-1.6 0-2.4-2.9-1.1-4.2 1.5-1.5 3.6 0.5 2.7 2.7zm-22.6 52.5q0 2-2 2-2 0-2-2 0-1.9 2-2 2 0.1 2 2zm-508.3 357.3c-0.5 1.7-3.4 2.1-4.2 0.7-0.4-0.6-0.3-1.6 0.3-2.2 1.3-1.3 4.5-0.1 3.9 1.5zm67 0c-0.5 1.7-3.4 2.1-4.2 0.7-0.4-0.6-0.3-1.6 0.3-2.2 1.3-1.3 4.5-0.1 3.9 1.5zm449-380c-0.5 1.7-3.4 2.1-4.2 0.7-0.4-0.6-0.3-1.6 0.3-2.2 1.3-1.3 4.5-0.1 3.9 1.5zm-15 31c-0.5 1.7-3.4 2.1-4.2 0.7-0.4-0.6-0.3-1.6 0.3-2.2 1.3-1.3 4.5-0.1 3.9 1.5zm15 0c-0.5 1.7-3.4 2.1-4.2 0.7-0.4-0.6-0.3-1.6 0.3-2.2 1.3-1.3 4.5-0.1 3.9 1.5zm-7-54c-0.5 1.7-3.4 2.1-4.2 0.7-0.4-0.6-0.3-1.6 0.3-2.2 1.3-1.3 4.5-0.1 3.9 1.5zm15 0c-0.5 1.7-3.4 2.1-4.2 0.7-0.4-0.6-0.3-1.6 0.3-2.2 1.3-1.3 4.5-0.1 3.9 1.5zm22 8c-0.5 1.7-3.4 2.1-4.2 0.7-0.4-0.6-0.3-1.6 0.3-2.2 1.3-1.3 4.5-0.1 3.9 1.5zm-378 396c-0.5 1.7-3.4 2.1-4.2 0.7-0.4-0.6-0.3-1.6 0.3-2.2 1.3-1.3 4.5-0.1 3.9 1.5zm25 8c-0.5 1.7-3.4 2.1-4.2 0.7-0.4-0.6-0.3-1.6 0.3-2.2 1.3-1.3 4.5-0.1 3.9 1.5zm25-8c-0.5 1.7-3.4 2.1-4.2 0.7-0.4-0.6-0.3-1.6 0.3-2.2 1.3-1.3 4.5-0.1 3.9 1.5zm335.3-373.3c0 2-2 2.8-3.4 1.4-1.3-1.4-0.5-3.4 1.4-3.4q2 0.1 2 2zm-29.5-45c-0.9 1.5-3.2 1.3-3.9-0.5-0.3-0.9 0.1-1.8 1-2.1 1.8-0.7 3.9 1 2.9 2.6zm22.2 7.4c-0.4 0.9-1.1 1.6-1.7 1.6-1.5 0-2.5-2.9-1.4-4 1.4-1.3 3.8 0.6 3.1 2.4zm-463.1 409.2c0.8 2.1-0.7 3.6-2.5 2.5-1.5-0.9-0.8-4.1 0.9-4.1 0.6 0 1.3 0.8 1.6 1.6zm425.9-416.6q-1.3 2.2-3.5-0.4c-1-1.3-0.9-1.7 0.4-2.2 2-0.7 4.1 1 3.1 2.6zm-332.7 425.8c-0.5 2.6-3.8 2.9-3.8 0.3 0-1.4 0.6-2.1 2.1-2.1 1.4 0 1.9 0.6 1.7 1.8zm377.2-411.8c0 1.4-0.7 2-2.1 2-2.6 0-2.3-3.3 0.3-3.8 1.2-0.2 1.8 0.3 1.8 1.8zm-37.2 7.8c-0.5 2.6-3.8 2.9-3.8 0.3 0-1.4 0.6-2.1 2.1-2.1 1.4 0 1.9 0.6 1.7 1.8zm15 0c-0.5 2.6-3.8 2.9-3.8 0.3 0-1.4 0.6-2.1 2.1-2.1 1.4 0 1.9 0.6 1.7 1.8zm-346.8 396.2c0 1.4-0.7 2-2.1 2-1.4 0-2-0.5-1.7-1.7 0.5-2.6 3.8-2.9 3.8-0.3zm354-419c0 2.1-2.4 2.8-3.5 1-0.9-1.3 0.3-3 2-3 0.8 0 1.5 0.9 1.5 2zm-522 418c0 2.1-2.4 2.8-3.5 1-0.9-1.3 0.3-3 2-3 0.8 0 1.5 0.9 1.5 2zm100.8 0.7c-0.6 3-3.8 2.7-3.8-0.3 0-0.8 0.9-1.4 2.1-1.4 1.4 0 1.9 0.6 1.7 1.7zm17 0c-0.6 3-3.8 2.7-3.8-0.3 0-0.8 0.9-1.4 2.1-1.4 1.4 0 1.9 0.6 1.7 1.7zm367-396c-0.6 3-3.8 2.7-3.8-0.3 0-0.8 0.9-1.4 2.1-1.4 1.4 0 1.9 0.6 1.7 1.7zm52-23c-0.6 3-3.8 2.7-3.8-0.3 0-0.8 0.9-1.4 2.1-1.4 1.4 0 1.9 0.6 1.7 1.7zm-51.8 7.9c0 1.7-2.6 1.9-3.6 0.4-0.8-1.5 1.1-3.4 2.5-2.5 0.6 0.4 1.1 1.3 1.1 2.1zm-460 403c0 1.7-2.6 1.9-3.6 0.4-0.8-1.5 1.1-3.4 2.5-2.5 0.6 0.4 1.1 1.3 1.1 2.1zm17 0c0 1.7-2.6 1.9-3.6 0.4-0.8-1.5 1.1-3.4 2.5-2.5 0.6 0.4 1.1 1.3 1.1 2.1zm487.5-418.6c0 0.9-0.8 1.7-1.8 1.9-1.2 0.2-1.7-0.3-1.7-1.9 0-1.5 0.5-2 1.7-1.8 1 0.2 1.8 1 1.8 1.8zm-45 46c0 0.9-0.8 1.7-1.8 1.9-1.2 0.2-1.7-0.3-1.7-1.9 0-1.5 0.5-2 1.7-1.8 1 0.2 1.8 1 1.8 1.8zm45 0c0 0.9-0.8 1.7-1.8 1.9-1.2 0.2-1.7-0.3-1.7-1.9 0-1.5 0.5-2 1.7-1.8 1 0.2 1.8 1 1.8 1.8zm-512.7 380.3c0.2 1.2-0.3 1.7-1.8 1.7-1.5 0-2.1-0.5-1.8-1.7 0.2-1 1-1.8 1.8-1.8 0.8 0 1.6 0.8 1.8 1.8zm117.7 0.7c0 0.9-0.8 1.7-1.8 1.9-1.2 0.2-1.7-0.3-1.7-1.9 0-1.5 0.5-2 1.7-1.8 1 0.2 1.8 1 1.8 1.8zm8.5-8.5c0 0.8-0.4 1.6-0.8 1.9-1.3 0.8-3.5-1-2.8-2.2 1-1.6 3.6-1.4 3.6 0.3zm-134.6 0.7c-0.3 0.5-1.2 0.8-2 0.8-1.7 0-1.9-2.5-0.3-3.5 1.2-0.8 3.1 1.5 2.3 2.7zm491.6-434.7c0 0.8-0.4 1.6-0.8 1.9-1.3 0.8-3.5-1-2.8-2.2 1-1.6 3.6-1.4 3.6 0.3zm-7.4 8.4c-1 1.6-3.6 1.4-3.6-0.3 0-0.8 0.3-1.7 0.8-1.9 1.3-0.8 3.5 1 2.8 2.2zm-199.2 427.3c-0.3 0.5-1.2 0.8-2 0.8-1.7 0-1.9-2.5-0.3-3.5 1.2-0.8 3 1.5 2.3 2.7zm-83.9-0.2c-0.3 0.6-1 1-1.5 1-1.6 0-2.3-2.1-1.1-3.2 1.4-1.4 3.7 0.5 2.6 2.2zm17 0c-0.3 0.6-1 1-1.5 1-1.6 0-2.3-2.1-1.1-3.2 1.4-1.4 3.7 0.5 2.6 2.2zm33 0c-0.3 0.6-1 1-1.5 1-1.6 0-2.3-2.1-1.1-3.2 1.4-1.4 3.7 0.5 2.6 2.2zm17 0c-0.3 0.6-1 1-1.5 1-1.6 0-2.3-2.1-1.1-3.2 1.4-1.4 3.7 0.5 2.6 2.2zm260-442c-0.3 0.6-1 1-1.5 1-1.6 0-2.3-2.1-1.1-3.2 1.4-1.4 3.7 0.5 2.6 2.2zm-22 8c-0.3 0.6-1 1-1.5 1-1.6 0-2.3-2.1-1.1-3.2 1.4-1.4 3.7 0.5 2.6 2.2zm-15 15c-0.3 0.6-1 1-1.5 1-1.6 0-2.3-2.1-1.1-3.2 1.4-1.4 3.7 0.5 2.6 2.2zm15 0c-0.3 0.6-1 1-1.5 1-1.6 0-2.3-2.1-1.1-3.2 1.4-1.4 3.7 0.5 2.6 2.2zm-540 418c-0.3 0.6-1 1-1.5 1-1.6 0-2.3-2.1-1.1-3.2 1.3-1.4 3.7 0.5 2.6 2.2zm17 0c-0.3 0.6-1 1-1.5 1-1.6 0-2.3-2.1-1.1-3.2 1.3-1.4 3.7 0.5 2.6 2.2zm168 1c-0.3 0.6-1 1-1.5 1-1.6 0-2.3-2.1-1.1-3.2 1.3-1.4 3.7 0.5 2.6 2.2zm33 0c-0.3 0.6-1 1-1.5 1-1.6 0-2.3-2.1-1.1-3.2 1.3-1.4 3.7 0.5 2.6 2.2zm226 8c0 1.6-1.8 2.4-2.8 1.4-1.4-1.4-0.7-3.5 1-3.2 1 0.2 1.8 1 1.8 1.8zm-309.1-10.1c0.7 1.1-1.9 3.4-2.8 2.5-0.3-0.4-0.6-1.3-0.6-2 0-1.5 2.6-1.8 3.4-0.5zm200.6 1.8c0 1.5-2.6 1.8-3.4 0.5-0.7-1.1 1.8-3.4 2.7-2.5 0.4 0.4 0.7 1.3 0.7 2zm197.3-426.3c-0.4 0.3-1.2 0.6-2 0.6-1.5 0-1.8-2.5-0.4-3.4 1.1-0.7 3.3 1.9 2.4 2.8zm22.1-9.5c0.7 1.1-1.9 3.4-2.8 2.5-0.3-0.4-0.6-1.3-0.6-2 0-1.5 2.6-1.8 3.4-0.5zm-51.4 8.8c0 1.5-2.6 1.8-3.4 0.5-0.7-1.1 1.8-3.4 2.7-2.5 0.4 0.4 0.7 1.3 0.7 2zm44 0c0 1.5-2.6 1.8-3.4 0.5-0.7-1.1 1.8-3.4 2.7-2.5 0.4 0.4 0.7 1.3 0.7 2zm15-0.2c0 0.9-0.9 1.5-2 1.5-1.1 0-2-0.6-2-1.5 0-0.8 0.9-1.5 2-1.5 1.1 0 2 0.7 2 1.5zm-52 7.5c0 1.2-0.7 2-1.5 2-0.9 0-1.5-0.8-1.5-2 0-1.1 0.6-2 1.5-2 0.8 0 1.5 0.9 1.5 2zm-309 419c0 2-1.1 2.6-2.3 1.4-1.3-1.2-0.7-3.4 0.8-3.4 0.8 0 1.5 0.9 1.5 2zm-243 6.5c0 1.6-2.1 2.1-3.4 0.9-1.2-1.3-0.6-2.4 1.4-2.4 1.1 0 2 0.7 2 1.5zm502.4 2.6c-0.7 1.2-3.1 1.2-3.9-0.1-0.8-1.2 2-2.4 3.5-1.5 0.5 0.4 0.7 1.1 0.4 1.6zm-108.9-8.1c-0.8 1.4-2.2 1.3-3.1-0.1-0.8-1.4 1.7-3.1 2.9-1.9 0.5 0.5 0.6 1.4 0.2 2zm-293 6c0 0.8-0.8 1.7-1.9 1.9-1.3 0.2-1.7-0.2-1.4-1.5 0.4-2.2 3.3-2.5 3.3-0.4zm459-448c-0.8 1.3-2.2 1.3-2.9 0.2-0.3-0.5 0-1.5 0.8-2.1 1.6-1.3 3.2 0.2 2.1 1.9zm14.9 0.2c-0.7 1.1-2.1 1.1-2.9-0.2-1.1-1.7 0.5-3.2 2.1-1.9 0.7 0.6 1.1 1.6 0.8 2.1zm-147.4 441.3c0 1.6-2.1 2.1-3.3 0.9-1-0.9 0.2-2.4 1.8-2.4 0.8 0 1.5 0.7 1.5 1.5zm-301.3-1.2c-0.6 1.9-3.7 2.2-3.7 0.3 0-0.9 0.8-1.6 2.1-1.6 1.2 0 1.9 0.6 1.6 1.3zm17 0c-0.6 1.9-3.7 2.2-3.7 0.3 0-0.9 0.8-1.6 2.1-1.6 1.2 0 1.9 0.6 1.6 1.3zm-126 7.5c0.3 0.7-0.4 1.2-1.6 1.2-1.3 0-2.1-0.6-2.1-1.5 0-1.9 3.1-1.6 3.7 0.3zm427.1-6.6c-0.5 1.5-2.2 2.1-3.1 1.2-1.3-1.3-0.7-2.4 1.4-2.4 1.1 0 1.9 0.6 1.6 1.2zm108.3-435.5c0.7 0.7 0.6 1.4-0.4 2.2-1.1 0.9-1.6 0.9-2.1 0.1-1-1.6 1.2-3.6 2.5-2.3zm-485 426.4c0 1.2-2.7 1.2-3.5 0-0.3-0.5-0.1-1.2 0.5-1.5 1.2-0.8 3 0.2 3 1.5zm426.5 9.9c-0.8 1.3-2.2 1.3-3.1 0-0.9-1.5 0.2-2.3 2.1-1.6 0.9 0.4 1.3 1.1 1 1.6zm-494-10c-0.8 1.3-2.2 1.3-3 0-0.4-0.5 0.1-1.2 1-1.6 1.9-0.7 2.9 0.1 2 1.6zm33.5-0.5c0 0.9-0.7 1.5-1.5 1.5-0.8 0-1.5-0.6-1.5-1.5 0-0.8 0.7-1.5 1.5-1.5 0.8 0 1.5 0.7 1.5 1.5zm17 0c0 0.9-0.7 1.5-1.5 1.5-0.8 0-1.5-0.6-1.5-1.5 0-0.8 0.7-1.5 1.5-1.5 0.8 0 1.5 0.7 1.5 1.5zm-25 8c0 0.9-0.7 1.5-1.5 1.5-0.8 0-1.5-0.6-1.5-1.5 0-0.8 0.7-1.5 1.5-1.5 0.8 0 1.5 0.7 1.5 1.5zm168 1c0 0.9-0.7 1.5-1.5 1.5-0.8 0-1.5-0.6-1.5-1.5 0-0.8 0.7-1.5 1.5-1.5 0.8 0 1.5 0.7 1.5 1.5zm267 1c0 0.9-0.7 1.5-1.5 1.5-0.9 0-1.5-0.6-1.5-1.5 0-0.8 0.6-1.5 1.5-1.5 0.8 0 1.5 0.7 1.5 1.5zm17 0c0 0.9-0.7 1.5-1.5 1.5-0.9 0-1.5-0.6-1.5-1.5 0-0.8 0.6-1.5 1.5-1.5 0.8 0 1.5 0.7 1.5 1.5zm90-450c0 0.9-0.7 1.5-1.5 1.5-0.9 0-1.5-0.6-1.5-1.5 0-0.8 0.6-1.5 1.5-1.5 0.8 0 1.5 0.7 1.5 1.5zm-483.3 440.3c0.3 0.7-0.4 1.2-1.7 1.2-1.3 0-2-0.5-1.8-1.2 0.3-0.7 1-1.3 1.8-1.3 0.7 0 1.5 0.6 1.7 1.3zm75.6 8.8c-0.4 1.7-3.3 1.7-3.3-0.1 0-1 0.6-1.5 1.7-1.3 1 0.2 1.7 0.8 1.6 1.4zm150.5 0.7c0.2 1.1-0.3 1.7-1.3 1.7-1 0-1.5-0.6-1.3-1.5 0.4-2.2 2.2-2.3 2.6-0.2zm-301.5-1.7c-0.4 1.7-3.3 1.7-3.3-0.1 0-1 0.6-1.5 1.7-1.3 1 0.2 1.7 0.8 1.6 1.4zm402 2c-0.4 1.7-3.3 1.7-3.3-0.1 0-1 0.6-1.5 1.7-1.3 1 0.2 1.7 0.8 1.6 1.4zm-377 6c-0.4 1.7-3.3 1.7-3.3-0.1 0-1 0.6-1.5 1.7-1.3 1 0.2 1.7 0.8 1.6 1.4zm-42.3-8.1c0 1.6-1.2 2-2.4 0.9-1.1-1.2-0.7-2.4 0.9-2.4 0.8 0 1.5 0.7 1.5 1.5zm176.4-6.4c-0.3 0.5-0.9 0.9-1.4 0.9-1.4 0-2.2-1.8-1-2.4 1.3-0.9 3.2 0.3 2.4 1.5zm17 0c-0.3 0.5-0.9 0.9-1.4 0.9-1.4 0-2.2-1.8-1-2.4 1.3-0.9 3.2 0.3 2.4 1.5zm67 0c-0.3 0.5-0.9 0.9-1.4 0.9-1.4 0-2.2-1.8-1-2.4 1.3-0.9 3.2 0.3 2.4 1.5zm-235-1c-0.3 0.5-0.9 0.9-1.4 0.9-1.4 0-2.2-1.8-1-2.4 1.3-0.9 3.2 0.3 2.4 1.5zm565-440c-0.3 0.5-0.9 0.9-1.4 0.9-1.4 0-2.2-1.8-1-2.4 1.3-0.9 3.2 0.3 2.4 1.5zm-481.9 438.9c0.4 0.7 0.3 1.7-0.3 2.2q-1 1-1.7-0.2c-0.4-0.6-0.3-1.6 0.2-2.1q1.1-1 1.8 0.1zm17 0c0.4 0.7 0.3 1.7-0.3 2.2q-1 1-1.7-0.2c-0.4-0.6-0.3-1.6 0.2-2.1q1.1-1 1.8 0.1zm17.5 1c0 1.2-1.6 2.2-2.4 1.4-1.1-1.2-0.7-2.4 0.9-2.4 0.8 0 1.5 0.5 1.5 1zm440-448.5c0 1.6-1.2 2-2.3 0.9-0.8-0.8 0.1-2.4 1.3-2.4 0.6 0 1 0.7 1 1.5zm-22 8c0 1.6-1.2 2-2.3 0.9-0.8-0.8 0.1-2.4 1.3-2.4 0.6 0 1 0.7 1 1.5zm44 0c0 1.6-1.2 2-2.3 0.9-0.8-0.8 0.1-2.4 1.3-2.4 0.6 0 1 0.7 1 1.5zm-613 439.5c0 1.2-1.6 2.2-2.4 1.4-1.1-1.2-0.7-2.4 0.9-2.4 0.8 0 1.5 0.5 1.5 1zm527 10c0 1.2-1.6 2.2-2.4 1.4-1.1-1.2-0.7-2.4 0.9-2.4 0.8 0 1.5 0.5 1.5 1zm-309-8.5c0 1.6-1.2 2-2.3 0.9-0.8-0.8 0.1-2.4 1.3-2.4 0.6 0 1 0.7 1 1.5zm67 0c0 1.6-1.2 2-2.3 0.9-0.8-0.8 0.1-2.4 1.3-2.4 0.6 0 1 0.7 1 1.5zm-117.3-0.3c-0.6 1.9-2.7 2.2-2.7 0.4 0-0.8 0.7-1.6 1.6-1.6 0.8 0 1.4 0.6 1.1 1.2zm67.3 0.3c0 0.8-0.7 1.5-1.6 1.5-0.9 0-1.4-0.5-1.2-1.1 0.6-1.9 2.8-2.2 2.8-0.4zm-143-8.3c0 0.5-0.4 0.8-1 0.8-1.3 0-2.2-1.7-1.2-2.4 1-0.6 2.2 0.3 2.2 1.6zm513.5-425c0 0.7-0.6 1.4-1.4 1.6-0.8 0.3-1.2-0.1-1-1.2 0.4-1.9 2.4-2.2 2.4-0.4zm0.5-15.2c0 0.6-0.7 1-1.5 1-0.9 0-1.5-0.4-1.5-1 0-0.5 0.6-1 1.5-1 0.8 0 1.5 0.5 1.5 1zm-287.5 449c-0.4 0.6-1 1-1.5 1-0.5 0-1.2-0.4-1.5-1-0.4-0.5 0.3-1 1.5-1 1.1 0 1.8 0.5 1.5 1zm-276.5-10c0 0.6-0.7 1-1.5 1-0.9 0-1.5-0.4-1.5-1 0-0.5 0.6-1 1.5-1 0.8 0 1.5 0.5 1.5 1zm360 10c0 0.6-0.7 1-1.5 1-0.9 0-1.5-0.4-1.5-1 0-0.5 0.6-1 1.5-1 0.8 0 1.5 0.5 1.5 1zm50 0c0 0.6-0.7 1-1.5 1-0.9 0-1.5-0.4-1.5-1 0-0.5 0.6-1 1.5-1 0.8 0 1.5 0.5 1.5 1zm17 0c0 0.6-0.7 1-1.5 1-0.9 0-1.5-0.4-1.5-1 0-0.5 0.6-1 1.5-1 0.8 0 1.5 0.5 1.5 1zm93-434c0 0.6-0.7 1-1.5 1-0.9 0-1.5-0.4-1.5-1 0-0.5 0.6-1 1.5-1 0.8 0 1.5 0.5 1.5 1zm-487 424.5c0 0.9-0.5 1.5-1 1.5-0.6 0-1-0.6-1-1.5 0-0.8 0.4-1.5 1-1.5 0.5 0 1 0.7 1 1.5zm-50-0.5c0 0.6-0.7 1-1.5 1-0.8 0-1.5-0.4-1.5-1 0-0.5 0.7-1 1.5-1 0.8 0 1.5 0.5 1.5 1zm594.1-439.3q1.1 1.1 0 1.7c-0.5 0.4-1.3 0.2-1.7-0.4-0.9-1.5 0.4-2.5 1.7-1.3zm-317.3 449.3c0.2 0.6-0.4 1-1.3 1-0.9 0-1.5-0.4-1.3-1 0.2-0.6 0.8-1.1 1.3-1.1 0.5 0 1.1 0.5 1.3 1.1zm67 0c0.2 0.6-0.4 1-1.3 1-0.9 0-1.5-0.4-1.3-1 0.2-0.6 0.8-1.1 1.3-1.1 0.5 0 1.1 0.5 1.3 1.1zm-117.7-0.5c0 0.6-0.5 1.2-1 1.4-0.6 0.2-1.1-0.4-1.1-1.4 0-0.9 0.5-1.5 1.1-1.3 0.5 0.2 1 0.8 1 1.3zm-41.1-8.5c0 0.6-0.4 1-1 1-0.5 0-1.2-0.4-1.5-1-0.4-0.5 0.1-1 0.9-1 0.9 0 1.6 0.5 1.6 1zm125 9c0 0.6-0.4 1-1 1-0.5 0-1.2-0.4-1.5-1-0.4-0.5 0.1-1 0.9-1 0.9 0 1.6 0.5 1.6 1zm167 0c0 0.6-0.4 1-1 1-0.5 0-1.2-0.4-1.5-1-0.4-0.5 0.1-1 0.9-1 0.9 0 1.6 0.5 1.6 1zm-83.5 0c-0.4 0.6-1.1 1-1.6 1-0.5 0-0.9-0.4-0.9-1 0-0.5 0.7-1 1.5-1 0.9 0 1.3 0.5 1 1zm-360.9-10.7c0.3 0.3 0.4 1.2 0.2 1.9-0.4 1-0.6 1-1.2 0-0.9-1.4 0-2.9 1-1.9zm-66.6 0.7c0 0.6-0.5 1-1 1-0.6 0-1-0.4-1-1 0-0.5 0.4-1 1-1 0.5 0 1 0.5 1 1zm17 0c0 0.6-0.5 1-1 1-0.6 0-1-0.4-1-1 0-0.5 0.4-1 1-1 0.5 0 1 0.5 1 1zm590-462c0 0.6-0.5 1-1 1-0.6 0-1-0.4-1-1 0-0.5 0.4-1 1-1 0.5 0 1 0.5 1 1zm-7 7c0 0.6-0.5 1-1 1-0.6 0-1-0.4-1-1 0-0.5 0.4-1 1-1 0.5 0 1 0.5 1 1zm-22 8c0 0.6-0.5 1-1 1-0.6 0-1-0.4-1-1 0-0.5 0.4-1 1-1 0.5 0 1 0.5 1 1zm15 0c0 0.6-0.5 1-1 1-0.6 0-1-0.4-1-1 0-0.5 0.4-1 1-1 0.5 0 1 0.5 1 1zm14 0c0 0.6-0.5 1-1 1-0.6 0-1-0.4-1-1 0-0.5 0.4-1 1-1 0.5 0 1 0.5 1 1zm15 0c0 0.6-0.5 1-1 1-0.6 0-1-0.4-1-1 0-0.5 0.4-1 1-1 0.5 0 1 0.5 1 1zm-454 448c0 0.6-0.5 1-1 1-0.6 0-1-0.4-1-1 0-0.5 0.4-1 1-1 0.5 0 1 0.5 1 1zm17 0c0 0.6-0.5 1-1 1-0.6 0-1-0.4-1-1 0-0.5 0.4-1 1-1 0.5 0 1 0.5 1 1zm17 0c0 0.6-0.5 1-1 1-0.6 0-1-0.4-1-1 0-0.5 0.4-1 1-1 0.5 0 1 0.5 1 1zm33 0c0 0.6-0.5 1-1 1-0.6 0-1-0.4-1-1 0-0.5 0.4-1 1-1 0.5 0 1 0.5 1 1zm17 0c0 0.6-0.5 1-1 1-0.6 0-1-0.4-1-1 0-0.5 0.4-1 1-1 0.5 0 1 0.5 1 1zm17 0c0 0.6-0.5 1-1 1-0.6 0-1-0.4-1-1 0-0.5 0.4-1 1-1 0.5 0 1 0.5 1 1zm16 0c0 0.6-0.5 1-1 1-0.6 0-1-0.4-1-1 0-0.5 0.4-1 1-1 0.5 0 1 0.5 1 1zm17 0c0 0.6-0.5 1-1 1-0.6 0-1-0.4-1-1 0-0.5 0.4-1 1-1 0.5 0 1 0.5 1 1zm17 0c0 0.6-0.5 1-1 1-0.6 0-1-0.4-1-1 0-0.5 0.4-1 1-1 0.5 0 1 0.5 1 1zm75 9c0 0.6-0.5 1-1 1-0.6 0-1-0.4-1-1 0-0.5 0.4-1 1-1 0.5 0 1 0.5 1 1zm50 0c0 0.6-0.5 1-1 1-0.6 0-1-0.4-1-1 0-0.5 0.4-1 1-1 0.5 0 1 0.5 1 1zm50 0c0 0.6-0.5 1-1 1-0.6 0-1-0.4-1-1 0-0.5 0.4-1 1-1 0.5 0 1 0.5 1 1zm33 0c0 0.6-0.5 1-1 1-0.6 0-1-0.4-1-1 0-0.5 0.4-1 1-1 0.5 0 1 0.5 1 1zm-392.9-9.2c0 0.4-0.5 0.9-1.2 1.1-0.6 0.2-1-0.1-0.8-0.8 0.5-1.3 1.8-1.5 2-0.3zm17 0c0 0.4-0.5 0.9-1.2 1.1-0.6 0.2-1-0.1-0.8-0.8 0.5-1.3 1.8-1.5 2-0.3zm434-440c0 0.4-0.5 0.9-1.2 1.1-0.6 0.2-1-0.1-0.8-0.8 0.5-1.3 1.8-1.5 2-0.3z"/></svg>