<?xml version="1.0" encoding="UTF-8"?>
<svg id="Layer_2" data-name="Layer 2" xmlns="http://www.w3.org/2000/svg" viewBox="0 0 146.09 174.81">
  <defs>
    <style>
      .cls-1 {
        fill: #fff;
      }
    </style>
  </defs>
  <g id="Layer_1-2" data-name="Layer 1">
    <g>
      <path class="cls-1" d="m93.11,129.92v13.33c0,1.58-11.99,3.93-13.1,4.13-17.54,3.14-36.66-4.45-45.84-20.07-10.51-17.9-7.38-41.05-7.49-60.85,0-.18-.15-1.3,0-1.43,0,0-11.97,10.44-13.32,29.75-.39,5.57-.34,11.07.5,16.6,2.26,14.88,9.73,29.55,23.1,38.47,18.18,12.14,41.3,14.69,60.73,6.04,3.01-1.34,5.92-2.86,8.75-4.54V34.32h0c1.92,0,3.77.69,5.22,1.95,6.03,5.22,22.23,20.38,29.54,38.42,0,0,11.01,28,0,53.5,0,0-2.35,6.64-4.36,10.56-.57,1.11-1.72,1.8-2.98,1.8h0c-.1-22.92,3.29-48.59-8.42-69.55-1.3-2.33-2.92-4.79-5.29-6.15v93.28c0,.66-3.2,2.57-3.67,2.91-3.31,2.43-6.82,4.59-10.48,6.46-19.68,10.07-47.16,9.59-66.85-.42-3.98-2.02-7.74-4.5-11.13-7.41C9.79,144-1.08,122.1.09,97.79c.29-6.04,1.39-12.06,3.61-17.69,0,0,5.11-18.37,21.24-33.99,2.45-2.37,4.75-4.88,7.23-7.21,2.3-2.17,4.65-4.57,8.02-4.57,0,15.52-.03,31.04-.18,46.56-.13,12.96-1.4,26.83,5.81,38.33,3.9,6.22,9.67,11.25,16.6,13.79,10.12,3.71,21.17,1.23,30.68-3.08Z"/>
      <path class="cls-1" d="m79.51,46.03v-21.08c0-.3-.12-.6-.34-.81l-4.57-4.57c-.91-.91-2.39-.91-3.3,0l-4.57,4.57c-.22.22-.34.51-.34.81v76.71c0,7.96,13.11,8.29,13.11.06v-28.59h-7.13v-13.4h20.68v39.55c0,4.96-1.32,9.88-4.06,14.01-2.04,3.08-5.01,6.01-9.27,7.33-5.3,1.64-10.28,1.27-15.45-.61-6.83-2.49-11.28-9.1-11.28-16.38V18.89c0-.62.25-1.21.68-1.65l15.87-15.87c1.82-1.82,4.77-1.82,6.59,0l16.27,16.27c.44.44.68,1.03.68,1.65v26.9l-13.59-.15Z"/>
    </g>
  </g>
</svg>