<svg xmlns="http://www.w3.org/2000/svg" width="60" height="60"><rect width="100%" height="100%" fill="none"/><path fill="#a8e1fa" fill-opacity=".25" d="M30 28.46a.63.63 0 0 1-.63-.63v-6.3c0-.35.28-.63.63-.63s.63.28.63.63v6.3c0 .36-.28.63-.63.63m1.88 1.09a.65.65 0 0 1-.56-.32.63.63 0 0 1 .23-.87l5.46-3.15c.3-.18.69-.07.86.23.18.31.07.7-.23.87l-5.46 3.15a.54.54 0 0 1-.3.09m5.46 5.32a.7.7 0 0 1-.32-.09l-5.47-3.15a.63.63 0 0 1-.23-.86c.18-.31.57-.42.86-.24l5.47 3.15c.3.18.41.57.24.87a.6.6 0 0 1-.55.32M30 39.12a.63.63 0 0 1-.63-.63v-6.3c0-.35.28-.63.63-.63s.63.28.63.63v6.3c0 .34-.28.63-.63.63m-7.34-4.24a.65.65 0 0 1-.56-.32.63.63 0 0 1 .23-.86l5.46-3.15c.3-.18.69-.08.86.23.18.3.07.69-.23.86l-5.46 3.16a.6.6 0 0 1-.3.08m5.45-5.33a.7.7 0 0 1-.32-.09l-5.47-3.15a.63.63 0 0 1-.24-.87c.18-.3.56-.4.87-.23l5.47 3.15c.3.18.4.57.23.87a.58.58 0 0 1-.54.32m15.93-4.74c-.06 0-.12-.01-.17-.03l-2.7-.74a.65.65 0 0 1-.46-.78l.7-2.7a.64.64 0 0 1 .79-.45c.33.09.54.44.45.78l-.54 2.1 2.08.56c.34.1.54.44.44.78-.05.3-.31.48-.59.48m-1.39 3.05a.7.7 0 0 1-.18-.03l-5.3-1.46a.63.63 0 0 1-.44-.78l1.39-5.32a.64.64 0 0 1 .78-.45c.33.08.54.44.45.77l-1.23 4.72 4.7 1.3c.34.08.55.43.45.77a.65.65 0 0 1-.62.48m1.63-5.27a1.45 1.45 0 0 0 1.96-.53 1.44 1.44 0 1 0-1.96.53m.71 14.64a1.44 1.44 0 1 0 0 2.88 1.44 1.44 0 0 0 0-2.88m-15.7 8.85a1.42 1.42 0 0 0 .71 2.67 1.44 1.44 0 0 0 1.25-2.15c-.4-.68-1.28-.91-1.97-.52zm-13.57-8.66a1.44 1.44 0 1 0-.35 2.64c.37-.1.68-.34.87-.68.19-.33.25-.71.14-1.08a1.4 1.4 0 0 0-.66-.88m-.71-17.5a1.44 1.44 0 1 0 0 2.88 1.44 1.44 0 0 0 0-2.88m15.36-8.62a1.44 1.44 0 1 0-.73 2.78 1.44 1.44 0 0 0 .73-2.78m11.7 28.6a.64.64 0 0 1-.62-.47l-.7-2.7a.64.64 0 0 1 .45-.78l2.7-.74a.63.63 0 0 1 .33 1.21l-2.08.57.54 2.1a.64.64 0 0 1-.45.78c-.07.03-.12.03-.18.03zm-3.33.3a.64.64 0 0 1-.62-.46l-1.4-5.33a.64.64 0 0 1 .45-.77l5.3-1.47a.63.63 0 0 1 .34 1.22l-4.7 1.29 1.23 4.72a.64.64 0 0 1-.46.78.5.5 0 0 1-.14.02m-6.75 5.52a.63.63 0 0 1-.45-.2L30 44l-1.54 1.53a.63.63 0 0 1-.9 0 .63.63 0 0 1 0-.9l2-1.96a.63.63 0 0 1 .9 0l1.99 1.96c.25.25.25.65 0 .9-.13.13-.3.19-.46.19m1.92-2.73a.58.58 0 0 1-.44-.2L30 39.38l-3.47 3.43a.63.63 0 0 1-.9 0 .63.63 0 0 1 0-.9l3.92-3.86a.63.63 0 0 1 .89 0l3.91 3.86c.25.25.25.65 0 .9-.1.12-.26.19-.44.19zm-15.97-3.08-.16-.01a.64.64 0 0 1-.46-.78l.54-2.1-2.08-.57a.62.62 0 0 1-.44-.77.62.62 0 0 1 .78-.44l2.7.74c.33.1.52.44.44.78l-.7 2.7c-.08.26-.34.44-.62.45m3.32.3c-.05 0-.1 0-.16-.02a.64.64 0 0 1-.45-.78l1.23-4.72-4.7-1.29a.62.62 0 0 1-.45-.77.62.62 0 0 1 .78-.44l5.3 1.46c.34.1.54.44.45.78l-1.4 5.32c-.05.26-.32.45-.6.45zm-5.32-15.38a.64.64 0 0 1-.61-.47.63.63 0 0 1 .44-.78l2.08-.57-.54-2.1a.64.64 0 0 1 .45-.77c.34-.09.69.12.78.45l.7 2.7a.64.64 0 0 1-.44.78l-2.7.73a.5.5 0 0 1-.16.03m1.4 3.03a.64.64 0 0 1-.62-.47.63.63 0 0 1 .44-.77l4.7-1.3-1.23-4.71a.64.64 0 0 1 .46-.78c.34-.09.69.12.78.46l1.39 5.32a.64.64 0 0 1-.44.77l-5.3 1.47a.7.7 0 0 1-.18.01M30 17.53a.58.58 0 0 1-.44-.2l-2-1.96a.63.63 0 0 1 0-.89.63.63 0 0 1 .9 0L30 16l1.54-1.52a.63.63 0 0 1 .9 0c.24.25.24.66 0 .9l-2 1.96a.64.64 0 0 1-.44.19m0 4.63a.58.58 0 0 1-.44-.19l-3.91-3.87a.63.63 0 0 1 0-.9.63.63 0 0 1 .9 0L30 20.65l3.48-3.43a.63.63 0 0 1 .9 0c.24.25.24.66 0 .9l-3.92 3.86a.7.7 0 0 1-.47.2zm3.94-.56-2.77 2.9a2.39 2.39 0 0 0 3.02 1.74l1.12-3.84c.23-.83-.78-1.41-1.37-.8m5.3 7.63-3.88-.97a2.38 2.38 0 0 0 0 3.49l3.89-.97c.82-.2.82-1.35 0-1.55zm-3.93 8.4-1.12-3.85a2.4 2.4 0 0 0-3.02 1.75l2.77 2.89c.59.6 1.6.01 1.37-.8zm-9.27.79 2.77-2.9a2.39 2.39 0 0 0-3.02-1.74l-1.11 3.84c-.22.81.78 1.4 1.36.8m-5.3-7.64 3.88.97a2.38 2.38 0 0 0 0-3.5l-3.88.98c-.81.2-.81 1.36 0 1.55m3.95-8.4 1.12 3.84c1.32.4 2.7-.4 3.02-1.74l-2.77-2.89c-.6-.6-1.6-.02-1.37.8zM30 32.82a2.81 2.81 0 1 1 0-5.63 2.81 2.81 0 0 1 0 5.63m0-4.36a1.54 1.54 0 1 0 0 3.08 1.54 1.54 0 0 0 0-3.08"/><path fill="#0e6baa" fill-opacity=".21" d="M55.21 59.95a.59.59 0 0 0-.3-.53l-1.55-.87a.58.58 0 0 0-.45-.06l-2.84.78a.58.58 0 0 0-.43.57c0 .26.16.49.42.57l2.96.9.16.02c.1 0 .2-.03.3-.08l1.4-.8c.2-.1.33-.29.33-.5m2.54-6.84-2.1-2.06a.6.6 0 0 0-.71-.1.6.6 0 0 0-.29.66l.71 3c.04.16.14.3.28.38l1.4.82c.09.05.2.08.3.08s.2-.03.3-.08c.19-.11.3-.3.3-.52l-.02-1.77c0-.15-.05-.3-.17-.41m2.26 10a3.12 3.12 0 0 1 0-6.22 3.12 3.12 0 0 1 0 6.22m0-5.04a1.92 1.92 0 0 0 0 3.84c1.05 0 1.92-.87 1.92-1.92 0-1.06-.87-1.92-1.92-1.92m-14.7-3.03a.6.6 0 0 1-.58-.44.6.6 0 0 1 .42-.72l2.95-.8-.82-3.04a.6.6 0 0 1 .42-.73.6.6 0 0 1 .73.43l.97 3.62c.04.15.02.31-.05.45a.6.6 0 0 1-.36.27l-3.52.95zm1.1 3.63a.6.6 0 0 1-.58-.44.6.6 0 0 1 .42-.72l6.5-1.74-1.7-6.37a.6.6 0 0 1 .42-.73.6.6 0 0 1 .73.42l1.86 6.95c.04.15.01.32-.05.45a.56.56 0 0 1-.36.28l-7.08 1.9h-.17zm11.46.58q-.15 0-.3-.09l-13.55-7.82a.59.59 0 0 1-.22-.8.59.59 0 0 1 .8-.23l13.56 7.83c.29.16.38.53.22.8-.1.2-.3.3-.51.3zm2.16-11.6a.6.6 0 0 1-.42-.17l-2.58-2.58a.59.59 0 0 1 0-.83c.24-.24.6-.24.84 0l2.15 2.15 2.23-2.24c.24-.23.6-.23.84 0 .23.24.23.6 0 .84l-2.64 2.64a.51.51 0 0 1-.42.2zm.03 5.39a.6.6 0 0 1-.42-.18l-5.2-5.2a.59.59 0 0 1 0-.83c.24-.23.6-.23.84 0l4.77 4.77 4.67-4.67c.23-.23.6-.23.84 0 .23.23.23.6 0 .83l-5.09 5.09a.51.51 0 0 1-.4.19zm.04 5.03a.58.58 0 0 1-.59-.6V41.84c0-.33.26-.59.6-.59.32 0 .58.26.58.6v15.64a.58.58 0 0 1-.59.59zm-57.65-2.2a.59.59 0 0 0 .6 0l1.53-.91c.14-.08.24-.2.28-.37l.74-2.84a.58.58 0 0 0-.28-.66.6.6 0 0 0-.71.09L2.36 53.3a.6.6 0 0 0-.19.42l-.01 1.62c-.02.22.1.41.29.52zm7.49 3.7-2.96-.9a.62.62 0 0 0-.47.06l-1.4.8c-.2.1-.3.3-.3.51 0 .22.1.41.3.52l1.54.88c.1.05.2.08.29.08l.16-.03 2.84-.78c.26-.07.44-.3.44-.56a.65.65 0 0 0-.44-.59zM.01 63.1a3.12 3.12 0 0 1 0-6.22 3.12 3.12 0 0 1 0 6.22m0-5.04a1.92 1.92 0 0 0 0 3.84 1.92 1.92 0 0 0 0-3.84m14.82-2.95-.15-.01-3.62-.97a.56.56 0 0 1-.35-.28.58.58 0 0 1-.06-.45l.95-3.52a.6.6 0 0 1 .72-.43c.32.09.51.41.43.73l-.8 2.95 3.05.82c.31.08.5.4.42.72a.62.62 0 0 1-.59.44m-1.31 3.6h-.15l-6.95-1.87a.6.6 0 0 1-.43-.73l1.9-7.08a.6.6 0 0 1 .73-.43c.32.09.51.42.43.73l-1.74 6.5 6.37 1.72c.32.08.5.41.43.73a.63.63 0 0 1-.6.44zm-11.28.7a.6.6 0 0 1-.52-.3.59.59 0 0 1 .22-.8l13.55-7.83a.59.59 0 0 1 .8.22c.17.29.08.64-.21.8L2.53 59.35a.54.54 0 0 1-.29.08zM.04 47.66a.6.6 0 0 1-.43-.18l-2.58-2.58a.59.59 0 0 1 0-.83c.24-.24.6-.24.84 0l2.15 2.15 2.23-2.24c.24-.23.6-.23.84 0 .23.24.23.6 0 .84L.45 47.46a.51.51 0 0 1-.42.2zm.02 5.38a.6.6 0 0 1-.42-.18l-5.2-5.2a.59.59 0 0 1 0-.83c.24-.23.6-.23.84 0L.05 51.6l4.67-4.67c.23-.23.6-.23.84 0 .23.23.23.6 0 .83L.47 52.85a.51.51 0 0 1-.4.19zm.04 5.03a.58.58 0 0 1-.59-.6V41.84c0-.33.26-.59.6-.59.32 0 .58.26.58.6v15.64a.58.58 0 0 1-.59.59zM57.57 4.12a.6.6 0 0 0-.6 0l-1.54.9a.58.58 0 0 0-.27.38l-.74 2.83a.585.585 0 0 0 .57.74c.15 0 .3-.05.41-.16l2.25-2.12a.6.6 0 0 0 .2-.43V4.64a.56.56 0 0 0-.28-.52M55.2-.05a.59.59 0 0 0-.3-.53l-1.55-.87a.58.58 0 0 0-.45-.06l-2.84.78a.58.58 0 0 0-.43.57c0 .26.16.49.42.57l2.96.9.16.02c.1 0 .2-.03.3-.08l1.4-.8c.2-.1.33-.29.33-.5M60 3.11a3.12 3.12 0 0 1 0-6.22 3.12 3.12 0 0 1 0 6.22m0-5.04a1.92 1.92 0 0 0 0 3.84c1.05 0 1.92-.87 1.92-1.92 0-1.06-.87-1.92-1.92-1.92m-2.69 18.1a.6.6 0 0 1-.42-.18.59.59 0 0 1 0-.84l2.64-2.64a.61.61 0 0 1 .84 0l2.57 2.57c.24.24.24.6 0 .84a.59.59 0 0 1-.83 0l-2.15-2.15L57.73 16a.56.56 0 0 1-.4.17zm7.82-2.84a.6.6 0 0 1-.42-.18L59.95 8.4l-4.67 4.67a.59.59 0 0 1-.84 0 .59.59 0 0 1 0-.84l5.09-5.08c.23-.23.6-.23.83 0l5.2 5.2c.23.22.23.6 0 .83a.58.58 0 0 1-.42.16zm-5.24 5.41a.58.58 0 0 1-.6-.59V2.51c0-.33.27-.6.6-.6s.59.27.59.6v15.64a.58.58 0 0 1-.6.6zm-12.05-8.19-.15-.01a.6.6 0 0 1-.42-.73l.8-2.95-3.05-.82a.6.6 0 0 1-.42-.72.6.6 0 0 1 .72-.43l3.62.97c.32.09.5.42.42.73l-.94 3.52a.61.61 0 0 1-.58.44m3.69.86-.15-.01a.6.6 0 0 1-.43-.73l1.74-6.5-6.37-1.72a.6.6 0 0 1-.42-.72.6.6 0 0 1 .72-.43l6.95 1.86c.32.09.5.42.43.73l-1.9 7.08a.57.57 0 0 1-.57.44m-7.32-1.83a.6.6 0 0 1-.52-.3.59.59 0 0 1 .22-.81L57.47.64a.59.59 0 0 1 .81.22c.17.3.07.65-.22.81L44.51 9.5a.5.5 0 0 1-.29.09zM9.94-.44l-2.96-.89a.62.62 0 0 0-.47.06l-1.4.79c-.2.11-.3.3-.3.52s.1.41.3.52l1.54.88c.1.05.2.08.29.08l.16-.03L9.94.71c.26-.07.44-.3.44-.56a.65.65 0 0 0-.44-.59m-5.3 5.81A.62.62 0 0 0 4.36 5l-1.4-.82a.6.6 0 0 0-.6 0c-.19.1-.3.3-.3.52l.02 1.77c0 .16.06.31.17.42l2.1 2.06a.58.58 0 0 0 .7.08.6.6 0 0 0 .29-.66zM0 3.11a3.12 3.12 0 0 1 0-6.22 3.12 3.12 0 0 1 0 6.22m0-5.04A1.92 1.92 0 0 0 0 1.9a1.92 1.92 0 0 0 0-3.84zM12.16 10.7a.6.6 0 0 1-.58-.44l-.97-3.62a.6.6 0 0 1 .43-.72l3.52-.95a.6.6 0 0 1 .72.43.6.6 0 0 1-.42.72l-2.95.8.83 3.04a.6.6 0 0 1-.43.73zm-3.78.66a.6.6 0 0 1-.58-.44L5.94 3.97a.65.65 0 0 1 .05-.45.6.6 0 0 1 .36-.27l7.08-1.9a.6.6 0 0 1 .73.42.6.6 0 0 1-.42.72L7.23 4.23l1.71 6.37a.6.6 0 0 1-.42.73c-.03.03-.09.03-.14.03m7.3-1.6q-.15 0-.3-.09L1.83 1.85a.59.59 0 0 1-.22-.8.59.59 0 0 1 .8-.23l13.56 7.83c.29.16.38.53.22.8-.11.2-.3.3-.5.3zm-18.36 6.4A.6.6 0 0 1-3.1 16a.59.59 0 0 1 0-.84l2.64-2.64a.61.61 0 0 1 .84 0l2.57 2.57c.24.24.24.6 0 .84a.59.59 0 0 1-.83 0l-2.15-2.15L-2.27 16a.56.56 0 0 1-.4.17zm7.82-2.83a.6.6 0 0 1-.42-.18L-.05 8.4l-4.67 4.67a.59.59 0 0 1-.84 0 .59.59 0 0 1 0-.84l5.09-5.08c.23-.23.6-.23.83 0l5.2 5.2c.23.22.23.6 0 .83a.58.58 0 0 1-.42.16zM-.1 18.74a.58.58 0 0 1-.6-.59V2.51c0-.33.27-.6.6-.6s.59.27.59.6v15.64a.58.58 0 0 1-.6.6z"/></svg>