<?xml version="1.0" encoding="utf-8"?>
<!-- Generator: Adobe Illustrator 27.6.0, SVG Export Plug-In . SVG Version: 6.00 Build 0)  -->
<svg version="1.1" id="Layer_1" xmlns="http://www.w3.org/2000/svg" xmlns:xlink="http://www.w3.org/1999/xlink" x="0px" y="0px"
	 viewBox="0 0 24 24" style="enable-background:new 0 0 24 24;" xml:space="preserve">
<style type="text/css">
	.st0{fill:none;stroke:#0A2472;stroke-width:2;stroke-linecap:round;stroke-linejoin:round;}
</style>
<path class="st0" d="M8,16c0,1.7-1.3,3-3,3"/>
<path class="st0" d="M16,16c0,1.7,1.3,3,3,3"/>
<path class="st0" d="M12,16v4"/>
<path class="st0" d="M3,7c0-1.1,0.9-2,2-2h14c1.1,0,2,0.9,2,2v4c0,1.1-0.9,2-2,2H5c-1.1,0-2-0.9-2-2V7z"/>
<path class="st0" d="M7,13v-3c0-0.6,0.4-1,1-1h8c0.6,0,1,0.4,1,1v3"/>
</svg>
